<mxfile host="app.diagrams.net" agent="Mozilla/5.0 (Windows NT 10.0; Win64; x64) AppleWebKit/537.36 (KHTML, like Gecko) Chrome/131.0.0.0 Safari/537.36" version="26.0.5" pages="6">
  <diagram name="Page-1" id="NIZdeABVYK7tqAPYBJKg">
    <mxGraphModel dx="6977" dy="1694" grid="0" gridSize="10" guides="1" tooltips="1" connect="1" arrows="1" fold="1" page="0" pageScale="1" pageWidth="850" pageHeight="1100" math="0" shadow="0">
      <root>
        <mxCell id="0" />
        <mxCell id="1" parent="0" />
        <mxCell id="y8pGJ15mQiUdOoLxBC6I-44" value="" style="rounded=0;whiteSpace=wrap;html=1;labelBackgroundColor=none;" parent="1" vertex="1">
          <mxGeometry x="-4179" y="-391" width="1042" height="794" as="geometry" />
        </mxCell>
        <mxCell id="mW-2sb_ijzaaoz4-CRFE-5" value="" style="edgeStyle=orthogonalEdgeStyle;rounded=0;orthogonalLoop=1;jettySize=auto;html=1;labelBackgroundColor=none;fontColor=default;" parent="1" source="eq7ag6R7nCHfDxSMrZv4-11" target="mW-2sb_ijzaaoz4-CRFE-4" edge="1">
          <mxGeometry relative="1" as="geometry" />
        </mxCell>
        <mxCell id="mW-2sb_ijzaaoz4-CRFE-8" value="" style="edgeStyle=orthogonalEdgeStyle;rounded=0;orthogonalLoop=1;jettySize=auto;html=1;labelBackgroundColor=none;fontColor=default;" parent="1" source="eq7ag6R7nCHfDxSMrZv4-11" target="mW-2sb_ijzaaoz4-CRFE-7" edge="1">
          <mxGeometry relative="1" as="geometry" />
        </mxCell>
        <mxCell id="eq7ag6R7nCHfDxSMrZv4-11" value="Business operation" style="rounded=0;whiteSpace=wrap;html=1;labelBackgroundColor=none;" parent="1" vertex="1">
          <mxGeometry x="662" y="216" width="120" height="60" as="geometry" />
        </mxCell>
        <mxCell id="mW-2sb_ijzaaoz4-CRFE-3" style="edgeStyle=orthogonalEdgeStyle;rounded=0;orthogonalLoop=1;jettySize=auto;html=1;entryX=0.5;entryY=0;entryDx=0;entryDy=0;labelBackgroundColor=none;fontColor=default;" parent="1" source="eq7ag6R7nCHfDxSMrZv4-12" target="eq7ag6R7nCHfDxSMrZv4-11" edge="1">
          <mxGeometry relative="1" as="geometry" />
        </mxCell>
        <mxCell id="eq7ag6R7nCHfDxSMrZv4-12" value="Core&amp;nbsp;&lt;div&gt;[Finlistval/Cohttp/FI]&lt;/div&gt;" style="rounded=1;whiteSpace=wrap;html=1;labelBackgroundColor=none;" parent="1" vertex="1">
          <mxGeometry x="662" y="71" width="120" height="60" as="geometry" />
        </mxCell>
        <mxCell id="mW-2sb_ijzaaoz4-CRFE-15" value="" style="edgeStyle=orthogonalEdgeStyle;rounded=0;orthogonalLoop=1;jettySize=auto;html=1;labelBackgroundColor=none;fontColor=default;" parent="1" source="mW-2sb_ijzaaoz4-CRFE-4" target="mW-2sb_ijzaaoz4-CRFE-14" edge="1">
          <mxGeometry relative="1" as="geometry" />
        </mxCell>
        <mxCell id="mW-2sb_ijzaaoz4-CRFE-4" value="further processing" style="whiteSpace=wrap;html=1;rounded=0;labelBackgroundColor=none;" parent="1" vertex="1">
          <mxGeometry x="662" y="353" width="120" height="60" as="geometry" />
        </mxCell>
        <mxCell id="mW-2sb_ijzaaoz4-CRFE-20" style="edgeStyle=orthogonalEdgeStyle;rounded=0;orthogonalLoop=1;jettySize=auto;html=1;entryX=0.5;entryY=0;entryDx=0;entryDy=0;labelBackgroundColor=none;fontColor=default;" parent="1" source="mW-2sb_ijzaaoz4-CRFE-7" target="mW-2sb_ijzaaoz4-CRFE-17" edge="1">
          <mxGeometry relative="1" as="geometry" />
        </mxCell>
        <mxCell id="mW-2sb_ijzaaoz4-CRFE-7" value="Generate event" style="whiteSpace=wrap;html=1;rounded=0;labelBackgroundColor=none;" parent="1" vertex="1">
          <mxGeometry x="938" y="216" width="120" height="60" as="geometry" />
        </mxCell>
        <mxCell id="mW-2sb_ijzaaoz4-CRFE-11" value="&lt;br&gt;Event Enabled&amp;nbsp;" style="text;html=1;align=center;verticalAlign=middle;resizable=0;points=[];autosize=1;strokeColor=none;fillColor=none;labelBackgroundColor=none;" parent="1" vertex="1">
          <mxGeometry x="814" y="207" width="99" height="41" as="geometry" />
        </mxCell>
        <mxCell id="mW-2sb_ijzaaoz4-CRFE-12" value="&lt;br&gt;Event not Enabled&amp;nbsp;" style="text;html=1;align=center;verticalAlign=middle;resizable=0;points=[];autosize=1;strokeColor=none;fillColor=none;labelBackgroundColor=none;" parent="1" vertex="1">
          <mxGeometry x="715" y="287" width="119" height="41" as="geometry" />
        </mxCell>
        <mxCell id="mW-2sb_ijzaaoz4-CRFE-14" value="commit()" style="whiteSpace=wrap;html=1;rounded=0;labelBackgroundColor=none;" parent="1" vertex="1">
          <mxGeometry x="662" y="462" width="120" height="60" as="geometry" />
        </mxCell>
        <mxCell id="mW-2sb_ijzaaoz4-CRFE-16" value="" style="edgeStyle=orthogonalEdgeStyle;rounded=0;orthogonalLoop=1;jettySize=auto;html=1;labelBackgroundColor=none;fontColor=default;" parent="1" source="mW-2sb_ijzaaoz4-CRFE-17" target="mW-2sb_ijzaaoz4-CRFE-18" edge="1">
          <mxGeometry relative="1" as="geometry" />
        </mxCell>
        <mxCell id="mW-2sb_ijzaaoz4-CRFE-17" value="further processing" style="whiteSpace=wrap;html=1;rounded=0;labelBackgroundColor=none;" parent="1" vertex="1">
          <mxGeometry x="938" y="353" width="120" height="60" as="geometry" />
        </mxCell>
        <mxCell id="mW-2sb_ijzaaoz4-CRFE-29" value="" style="edgeStyle=orthogonalEdgeStyle;rounded=0;orthogonalLoop=1;jettySize=auto;html=1;labelBackgroundColor=none;fontColor=default;" parent="1" source="mW-2sb_ijzaaoz4-CRFE-18" target="mW-2sb_ijzaaoz4-CRFE-28" edge="1">
          <mxGeometry relative="1" as="geometry" />
        </mxCell>
        <mxCell id="mW-2sb_ijzaaoz4-CRFE-18" value="commit()" style="whiteSpace=wrap;html=1;rounded=0;labelBackgroundColor=none;" parent="1" vertex="1">
          <mxGeometry x="938" y="462" width="120" height="60" as="geometry" />
        </mxCell>
        <mxCell id="mW-2sb_ijzaaoz4-CRFE-22" value="Examples" style="swimlane;fontStyle=0;childLayout=stackLayout;horizontal=1;startSize=30;horizontalStack=0;resizeParent=1;resizeParentMax=0;resizeLast=0;collapsible=1;marginBottom=0;whiteSpace=wrap;html=1;labelBackgroundColor=none;" parent="1" vertex="1">
          <mxGeometry x="354" y="182" width="140" height="120" as="geometry" />
        </mxCell>
        <mxCell id="mW-2sb_ijzaaoz4-CRFE-23" value="Transaction" style="text;strokeColor=none;fillColor=none;align=left;verticalAlign=middle;spacingLeft=4;spacingRight=4;overflow=hidden;points=[[0,0.5],[1,0.5]];portConstraint=eastwest;rotatable=0;whiteSpace=wrap;html=1;labelBackgroundColor=none;" parent="mW-2sb_ijzaaoz4-CRFE-22" vertex="1">
          <mxGeometry y="30" width="140" height="30" as="geometry" />
        </mxCell>
        <mxCell id="mW-2sb_ijzaaoz4-CRFE-24" value="Account opening" style="text;strokeColor=none;fillColor=none;align=left;verticalAlign=middle;spacingLeft=4;spacingRight=4;overflow=hidden;points=[[0,0.5],[1,0.5]];portConstraint=eastwest;rotatable=0;whiteSpace=wrap;html=1;labelBackgroundColor=none;" parent="mW-2sb_ijzaaoz4-CRFE-22" vertex="1">
          <mxGeometry y="60" width="140" height="30" as="geometry" />
        </mxCell>
        <mxCell id="mW-2sb_ijzaaoz4-CRFE-25" value="Account Modification" style="text;strokeColor=none;fillColor=none;align=left;verticalAlign=middle;spacingLeft=4;spacingRight=4;overflow=hidden;points=[[0,0.5],[1,0.5]];portConstraint=eastwest;rotatable=0;whiteSpace=wrap;html=1;labelBackgroundColor=none;" parent="mW-2sb_ijzaaoz4-CRFE-22" vertex="1">
          <mxGeometry y="90" width="140" height="30" as="geometry" />
        </mxCell>
        <mxCell id="mW-2sb_ijzaaoz4-CRFE-26" style="edgeStyle=orthogonalEdgeStyle;rounded=0;orthogonalLoop=1;jettySize=auto;html=1;entryX=0;entryY=0.5;entryDx=0;entryDy=0;labelBackgroundColor=none;fontColor=default;" parent="1" source="mW-2sb_ijzaaoz4-CRFE-24" target="eq7ag6R7nCHfDxSMrZv4-11" edge="1">
          <mxGeometry relative="1" as="geometry">
            <Array as="points">
              <mxPoint x="551" y="246" />
              <mxPoint x="551" y="246" />
            </Array>
          </mxGeometry>
        </mxCell>
        <mxCell id="mW-2sb_ijzaaoz4-CRFE-28" value="Publish Event&lt;div&gt;(based on event publish method)&lt;/div&gt;" style="whiteSpace=wrap;html=1;rounded=0;labelBackgroundColor=none;" parent="1" vertex="1">
          <mxGeometry x="1138" y="462" width="120" height="60" as="geometry" />
        </mxCell>
        <mxCell id="VCNx-ZiR3ODWV4dT9AMK-1" value="" style="shape=step;perimeter=stepPerimeter;whiteSpace=wrap;html=1;fixedSize=1;labelBackgroundColor=none;" parent="1" vertex="1">
          <mxGeometry x="456" y="313" width="120" height="80" as="geometry" />
        </mxCell>
        <mxCell id="y8pGJ15mQiUdOoLxBC6I-1" value="" style="image;html=1;image=img/lib/clip_art/computers/Database_128x128.png;labelBackgroundColor=none;" parent="1" vertex="1">
          <mxGeometry x="897" y="811" width="80" height="80" as="geometry" />
        </mxCell>
        <mxCell id="y8pGJ15mQiUdOoLxBC6I-2" value="" style="shape=stencil(lVnZctw2EPyafZ3CfTw7zn+4ynK0FUVyyXKOv08zW6CJBrcVv0lcNIG5enrAS/zw7fHT14dLcN/eXl9+f/jr+vnt8RJ/uYRwfX58eL2+4a9L/HiJH768vD789vry/fnz7f+vn7aV219/vPy5veHvGy5W62FDBffP7UkwH/978Ott/dP1+bg+WvPT+mRRrA/NUp7WV8tZrMf28/u9tyY28NncvIGvFst9QLNWZoOj+XR/fbJA69twwbkFlmaHxmS5CY9aT7NDnUWnzp/avL6YE/bCHdVNgOwtCINDt1xnQJY7pGBtPlIuw6hTAH5OcQYgZv0+oFQLftmh3gfUzF4FwIkotDCS4GB0FDa0MrJsB6Th6HNAt1gZoOLQg1UyGsUnaqfDxMBGN7VDNj/bUJwVYUN3VudIl2IlSLeWGVDTiP154LylOVvxCmVDbpb7BMAhm7AhVS5o+E0ZHRsHzjtnTiH8yLV9iybzOyz5jeB7sUNABRV2k2I97NDnHeBpL5IJNlD2FW9dAQozPSqoiJJLOADRRrCsIpdHYI9MJtya3WDeww5e0MZWwnMy4UkRZI/so3QFk1XFZJ5pA0+CCFyJFqnkkjlhA36utEORLb00qzNtgG4Vz9RobqZvvCKIwNVmvfAOVdFGGgc42KBSA+SaHXtJsQDqq8x8D0crt4IrAxntZHr3wkdCsqiKA4CTD14SgeuVjwRAEtkKQK0MCCIOG20VBniR3gD0tbOrI3WWSwAouQQAtSAAuiggAHrlOCRlNACNAV3bwLy09/q7RhcGVGVD4yMh+Zzq7G0kwgHglVvrUNlHgDoSMqexDV3XA+0AwHsFFBigqBKAuAROkTEAKTFAae9NKSzJ17SX3FJxisgAyAsJBJVLjTXcVqLKrfBJWnZQvNRZMG00o0u0LEa3dyouchxUpA8C7BhqVRB9mVG6pr6fBpSl5KI+UhpUugOgx9UOaDhUo6gpkd8ts/4penatfaT/rhKdNLoG7igANJEbaPxU1ABkrX945OgyvzeZSm6tUiWC6OgKBHFQRv9IhB0QhlV3592F71VXxKDH0nh/xbk0XltQkvNAAlcSuUY5omDIL8u8q+5NMDblyDao5IuJp6ayi7RzgGPtgJlGjlmNUwNTk6K+7SqEZkUvARFT2CxcN1UnUiNW7ijoAKqNbkPQ7FbwiGqjeeeI3eg2Ev68HjoTWfND8J/TjBv1tcchSOZrle/gNuZTjdqfSAHZd9dsfeeiovPUtAH0/Q/r0CKnJqRaWjq7Uom1jOuh4wAhCgg8FxeF5TQvrYCk7kLDQmRN3sOh4lgwFZnevnAHwsiu7hIXCZf0SLNkUnKjhZ2uX4RG1LQXWI6FOtTQnfPTaIwTVpFGPrLu9lnfRzuOmdfKPiyEkaWHNs6b+SLIJIqLTHey+OMiup28jgalOs/r1W1dZc524wX/k7KdvFrePrFUWh/U+xvLCyen+rjcQTndNhuXAASQvv/M9IVFCrBtvaP1Sruc3K/qltlYHHnJED/9ievd9fjjx/e0L9enp9vnuOPv/P0Nj27f7uLHfwE=);lineShape=1;labelBackgroundColor=none;" parent="1" vertex="1">
          <mxGeometry x="1288.268840481364" y="-124.88291790104535" width="101.23776601061354" height="121.97346623908498" as="geometry" />
        </mxCell>
        <mxCell id="y8pGJ15mQiUdOoLxBC6I-3" value="" style="shape=stencil(fZbdcgIhDIWfZm8zQAg/17Z9j85U606tdqz9e/tmZ0c0uJ47xP0I5JwEBl59bp8/1kNwn6fj4W39M76ctgM/DCGM++36OJ50NPDjwKvN4bh+PR6+9i/z74/n6ctp9H74nlb4nbmSKZeJCu5vngmZ6jzzNAO7cX8FVKEsBuBKrgKg9oAE8gkCbLeUhEoEQKSUDZDLeWYRKIl8MEDRmHwfyBrBG6Amyu4+kDxxMoB3jhwgYu7TVAsVkFcWCs4CTBEoF4RctKeOxHIf8IXYpikHikAIf+MNUW94AGSSaoAoFIE3AlOyeWU+p2E5S9yfQZcQILVuQOwZdJNoS9Ls3wA5u2XZTIHECqeJ9kDpSaauRiNVcAY1QhdBzeLBli5WazpkSsBLV25uRaqWRyFawTQzRRIQYirJzq5atkBqLfouwqUxLBepthWb10vrWZY6UOAeyKCCtDV625mm9gmUC4Wc3VLJMMIE1BsA2FW9JraVlQB7n3c9oMKhCLEvIM1zBPZ25/umNQ1tVEC2G+fFCC8g398O2hNQuQlVu752DBfA+q0ptnqO5JFmeuIuo9DY7KjY71UxdJV4EntifPWorW++R/dC4t7V3DlIB5cHx2bc7eb3yvX//QNFp+bHDT/+Aw==);lineShape=1;labelBackgroundColor=none;" parent="1" vertex="1">
          <mxGeometry x="1385.8678998073196" y="-56.658794749732806" width="4.672539772115215" height="4.665236216357812" as="geometry" />
        </mxCell>
        <mxCell id="y8pGJ15mQiUdOoLxBC6I-4" value="" style="shape=stencil(fZbdcgIhDIWfZm8zQAg/17Z9j85U606tdqz9e/tmZ0c0uJ47xP0I5JwEBl59bp8/1kNwn6fj4W39M76ctgM/DCGM++36OJ50NPDjwKvN4bh+PR6+9i/z74/n6ctp9H74nlb4nbmSKZeJCu5vngmZ6jzzNAO7cX8FVKEsBuBKrgKg9oAE8gkCbLeUhEoEQKSUDZDLeWYRKIl8MEDRmHwfyBrBG6Amyu4+kDxxMoB3jhwgYu7TVAsVkFcWCs4CTBEoF4RctKeOxHIf8IXYpikHikAIf+MNUW94AGSSaoAoFIE3AlOyeWU+p2E5S9yfQZcQILVuQOwZdJNoS9Ls3wA5u2XZTIHECqeJ9kDpSaauRiNVcAY1QhdBzeLBli5WazpkSsBLV25uRaqWRyFawTQzRRIQYirJzq5atkBqLfouwqUxLBepthWb10vrWZY6UOAeyKCCtDV625mm9gmUC4Wc3VLJMMIE1BsA2FW9JraVlQB7n3c9oMKhCLEvIM1zBPZ25/umNQ1tVEC2G+fFCC8g398O2hNQuQlVu752DBfA+q0ptnqO5JFmeuIuo9DY7KjY71UxdJV4EntifPWorW++R/dC4t7V3DlIB5cHx2bc7eb3yvX//QNFp+bHDT/+Aw==);lineShape=1;labelBackgroundColor=none;" parent="1" vertex="1">
          <mxGeometry x="1495.716380031929" y="-118.77999531125624" width="4.672539772115215" height="4.665236216357812" as="geometry" />
        </mxCell>
        <mxCell id="y8pGJ15mQiUdOoLxBC6I-5" value="" style="shape=stencil(7VrJchMxEP0aX1WSWlufWf4jVQTiIiRUCNvf08LIjJ7Gz3Ckipsz7mep99c9OciLT3c3H28P0X96fnp8f/v1+Ob57iAvDzEeH+5un47P9ukgrw7y4u3j0+27p8fPD29Of3+86ZL904fHL/0Xvp1wUV2IHRX999OT4Gr7+eD1Sf7++LCVz07CJB9dDkTeu1wneRkPduVDdj5N8tkFIq8uz9evrhFx+7E8axudz+T6Ls23D81FJdd3rc3WKePEXXlxZbamJFfTZXnTrkzyycxZyH3ENZ3NGYZK+wpHFwDQqMPEALMKJTkhEWQ3jvMJpTqNxGfZKQCaU7kMsK/By3YCC9JqSdBQh0oAraKfSxie3A9Tc5OfzaouksDQ4toc2LkOV+4DmksNASw0DFAFAYmfoMsJiXhaTcXlBOYHA0C6dQC7krqyACoJDQO0hAD1FKBzLFk+eFYBvHfeI0K41rqmHFdCIwJY1TBAXU5gGdTtCico1bp7bo1vZlezCSS18GCy0j17ztI8sRxVTLmaRgDvA6KLcyVrgaZcteI6n9C4p3tlnHWwunCl9EFSa6XtOVlGzids4nG/fjcM8F4YiBIShmM3SggpNDFhVjehOWc9VucuV+OoJJdIw045ZiwjuTa7OgtNOTshzjqkxk+oTgCQKTMxogTVNZ0j/hITA7OmQluKeGyLXQcWGmmpM4GGq+hCHjKtAsYFPHSINlJkH1BchdYenLAMsuifrWR1ppBotUBI85VKHhxzH1AwgYr1bkZPPOZopyfESgaoEQHMcQbAK1nZIMFnRgweAUpKXwfMKWrVOBLHdYAggCodsI2WRlt7t9JKE4njDACzQ9ExfFwCxBVAqrH1QJUFQHQwQFnMqqQYGyDlxUosWtXJ4gfG+jpg8QMrxh0AGVdp3zVAFgRUlqI6vt4mEItWj0Pl9YyTBcCsZICy6MDYtwGwZZnSV/JhUZqFRs+4JTQCu9IeILEECmN23gBYbe1KVwQ0DgAe2hOIKe1HN9gCWOWz0FgB/Ep/B7D+ENcEYhkXh9W3DYXoYG0czZpoaBizSBBLkeZDCtiBetIykniOzTOgjL66D5AR/RtGFtliSTFae6tnq5yEVkp89IsB5wFjH2weMN6aFU9g5d5IogfO1/gJBftD5tzbTijQFAMNPqOhAKhhlLZ9QEGCZeyeNUWJY2w7zw+R78iW2dKGILYTNDfpfKW+HGFbwYTVWwulocYhYRwwHTJR2gYY6HGt0oG6+THnnQGeTn6tIlm38ZRROJva0sL5mA5mExiorWo0ttioy8JI/++w/u+wBiAi4F/bYVXc3nfuy3RICzuxcsuSeukoVnkYnak6djcb7kDnsobV+NpMk8dwe64zniZEistMo3RxJyvTzZQax4VW9gmBLZgiDkHGuYS0oILDa0q0AwUcUCRT2rqkW++qpO4tTdr6PEsewagInvYGCzsYf8aYeWmdBpkjdD/R9Z3tE2gqd+o2FzBPG4/dvySQ/0XaL8mrR3l2/4V7esrzTF4ayAfObSHtPR254zIQ++GQS/KQMJ62qLjsMfzYfP+hfOD2V3ytGa7qC1tuOqh2e8JrXMp0ur/wPrQA/e1L9Kvy9uH3G/u3x/v70wv/7ff4ht8enf47QF79AA==);lineShape=1;labelBackgroundColor=none;" parent="1" vertex="1">
          <mxGeometry x="-50.12390738148508" y="19.80849531446563" width="134.61048167368335" height="157.29212258824748" as="geometry" />
        </mxCell>
        <mxCell id="y8pGJ15mQiUdOoLxBC6I-6" value="" style="shape=stencil(lVfZctswDPwavWIIghee0/Q/MhOn9tS1M457/X2haqiakLOdvMkylgQWi0OTPLztn153Uwxv18v56+7n4fm6n+TTFOPhtN9dDld7muRxkoeX82X35XL+fnpefr8+zZbz07fzj/mEXwsuMdU2o2L4vbzJ1PTvi8+L/fFwurWPpDzYcyZNACDUxgtipSIAkDwgBQoFAArlPIbAlBoANOIwApQKCDoHimUA1EACgi6JSh0BDQI0EY83tEqtAoCdN+ahKSmglYOxOEatkSK6QimkEWBhZQDIlGUEFGr8PsBcbg7Q+hH3AZHySJM5WQCvNVEaATc83E9dIVF/RUbiUOLmg0iApixU2NNUgUuz/DaJyIDXpJQcr5EY8GoFE0e9zqlBLmWfCNNrBUVamJoDFIrApWKsj3JtmQTcUK2tNA+IANC2MVgri0DfVi/qg46g0WglVk9rBLSa1KpLHG5ls/zH3qeC+0YhdRVUoDTMAXXiaxQAS0YiO3krCaiHumHJAIq0pN2BGwDqMya+tIlBsbx9xVXYv2dA/ghANlNOQx8B9/u3UHDyZgoo6F6PNzMrAWVU0jGCEmCea6+VdYhGaG97xXi+jfWMGOqlte4NpjvQh7n/u3Z66+RA2JtxWGAth97TV/eh5KLPllAC5KyHrcH2oXK/xnom11iJQWo5eu4DnFBsvZydfQD25m1N3h6U17wBVmcvgEyxxuv9UeCPFM8+w6VWdJutAPi0pdk1oNQH7nv2H1uy/2tvD/82+pfD8bh8ENz+778A7NXy9SCPfwA=);lineShape=1;labelBackgroundColor=none;" parent="1" vertex="1">
          <mxGeometry x="-1252.7510680409464" y="-30.465149935522277" width="14.017273278370551" height="47.98660547136186" as="geometry" />
        </mxCell>
        <mxCell id="y8pGJ15mQiUdOoLxBC6I-7" value="" style="shape=stencil(lVhJctswEHwNr1PYgTk7zj9cZTlSRZFcspzl9xmGBYoYkC3lJpFozt7T5OCfPvYv77vBmY/r5fx99+vwet0P/svg3OG0310OV/k1+OfBP72dL7tvl/Pn6XX6//4ynhx//Tj/HJ/we8J5cn4EOfNnumDIxX8Xvk7Hj4fT4jiTseq4MdvHbaAc9HnePu8chdadQCGD84Vi649YtADgHfnWgDzCJwAIVNoIQsQWIoXWpWQoBWiBYwPIUhQLAbE0gOLIFADwVHIDYMkzKEMw5F1rIZMBbRHm2wuXGDRGDGRSG3ShAGKITE4BYr2yCkhRt1KW2oMYsqXIbeGkNUCWcqbS1iFJKd02oATypgW4Wsr1aZPxadOaLAyaEwWjAREBJAbuXALNx6wLJ0EjChBAVhZizds6Z5iZU2ZEriOyZSK1/Z0xLXGhonrDUkFRZz1yMqMW9IYUwrS0ke+kSXoja4BFQTvKSbuUQPexrUS3GAg0ctyxgKS1ACYrrF2SCSqAK0dAW4eUKGOXXJtW6b6M6mD1fktSOFRp17GAhUwmhbMdwCML0v6pA6AYsmYymVHrYXtnp4MOdwZITZyQK+olJlZBZ6wbWK/RxORBLwnAqm612ELpJs7h1kgU1cTJnsSVZsUaWGz8N6CUuj8WANQaslGUHpOtiOTMuGWVhQxJYCSVtg7FkAVZkkZQNCNSAPHSbQfOgABHNAoZK7GR6hZbBxhtgfFWDL7engEJiz6hrbYOt4ZfBxgt+hZrb13qJuKsgwggryJsU+tTsZAFRNwr8SATxCBNAkidPEEyUVxS1BdSba+toG1rwduqP7ZeINRGsVz1+LraEJdUIeZ3kK1XGsX3DMV398YkZQGP797HRIOCp7ta0dtxpA+tXgwZClbJtWJISC5Gz2WCoRqdyFjlw8ZxpQoDlGzdcV8132POOKhculBdLfNjiZRdBp7elcnUC481gala8rEWw6/8d4/Lj9vXhbfD8Th9nFje118j5NL0JcM//wU=);lineShape=1;labelBackgroundColor=none;" parent="1" vertex="1">
          <mxGeometry x="-1224.893746700101" y="-26.80583542510226" width="72.62791900191652" height="58.06897545938049" as="geometry" />
        </mxCell>
        <mxCell id="y8pGJ15mQiUdOoLxBC6I-8" value="" style="shape=stencil(rVnbThwxDP2afbWce/JM2/9AAsqqlEULvf19HW09M3F2Dq3Ut2Wwk9g+to+TQ7h5fbx9uT94fn07n77c/zjevT0ewoeD98fnx/vz8U1+HcLHQ7h5OJ3vP59P357vLn+/3HbJ/uvr6Xtf4edFz3nKoWt5/vXni374dJF/Oj4b+TLKM3GDCmVU8J7YQYXaBoWQyRegEIhHExJTQzsEcnVQyHLIDBXiuENxVPEOxY8KlSpyaySOg0KNVBJUCKNbayPHUCHzoNA8hQgVWh4VMjkUh6JO3OwQkZcaBaPA+uWqgmAzjIGrhTJSCJRGo2uiBNzqi2JzUZDYI4VGfox09ZRApEPQMC0KTiNzXaEqEBYF8ZLfV4iZ4uhWAR8DL6WiPlkUAjWQ07kpcpYEEvABo+XEPBqdIyVgQ62UxyNlhvnQJOPGHZL4rQKFrHFdFAreIZEbjU7iJaTgbV2KlSKItIC5jkeKUshAinZsjkUgLHvuxcGPO0iGVGCDIMeN+eAyVYClkm31do4iwJIo+NFLlQIwoUSb0hJIEOfCVIuRR1UsJ+uiTAyQKjDz0/oo2SQVTPOhAvwTpdOYVqKpsVdfoukklEER9lLmTV+A8lLlLWFgiGqJf81WoaGIURodJCugrhBt5ot8Bus7Pe5GvgHEse2D3SIQAaY0yScQ4SknRd6B87MW840/UROcau87jG357woI1NCkGTkjjkoQ28Je4eGdNbYqvHfEk7PiCJtaXlfxBFb31tQKgeA17KtnAjiMcNBoxCs8jKEFPQ9BofKa1ts0RNyJwgRLtL7TpN7IQwZrSUdPQ7i+7UROW80e0KZGlKG84TS97EAg2/MwjNe1NPQ4zS0cCqjLbHmoMDJobbJdt4CuyBqaTV6hoc8Se+np/0882rzCNaHY4a1CRr92j1UeDrjT+gUSEjl+tgTgnYZuIpu0Qe4RBpPoERa12HRYXkikNrBdwjMCGQ/PM6HysCbLaG2A73WB6/JJh8xVHo0WpdgLiQDrTp/cJwKGCGpTfrntz4jFs9aZRSFRQSzeW4rXXQpMkKE3jyYEKRcgZjKHs1GosNi2aKtnxDS7FTVxQbWDXnI8FVBBYgIVUbZgw8wdpCZihEGSKBQ0sDU7Q+bl4mcv1HW0OhcNzd70Yq6qCs4e8Ym5FxK8o3SIZZq/HBxrQ5vuVCL0UojTnUqmBLAh4DTUoE/GiAplatNlWAA7SEkMZuhxWmWvK3hrQws6V15XkMCZfiwJgdpOtXNhq3AM6FeG4w6bFPnLSUzOhFpDZ2TGag97m1ugsw0Emian6VbAhNC33iZsLrfQXdU6TG3ubiHPZGt09viyl6dSxtgGVq9vbrihl9gSpI5HNDWxkr9ND0IXdH0knJ4BUKDZ1lYHyWzffpRnvXbYtTgZeVQyukurkUezVufq2cg7jFNn5eEjhrM3c++mZrHnf+dVhe154BuJcKhm/YmfeaI9D7r2c9Os67St7Mn/87MTlpcf6xvXw/Hp6fJEtv2/fROTT5f3tPDxNw==);lineShape=1;labelBackgroundColor=none;" parent="1" vertex="1">
          <mxGeometry x="-1253.9866263014399" y="-48.04796335808771" width="162.79100711048258" height="126.97443734655168" as="geometry" />
        </mxCell>
        <mxCell id="y8pGJ15mQiUdOoLxBC6I-9" value="" style="shape=stencil(nVfLctswDPwaXzEkQPBxTtP/yEyc2tPUzjhOH39fqB6lAuyu2t5kmUsRwO4C3Mjd6+7hZbvh9Ho+HT9vv+0fz7uNfNgw7w+77Wl/tqeN3G/k7ul42n46Hd8Oj5ffLw/Tyunpy/HrtMP3C64K5TShOP24vBGq9deLj5f1z/vDcn2mLG59zqQJA4YHNKoDAJiSPxEzVQaAQsl/gTu1AgCVpPiYhboAQCdtHjCIwZF6ouK/UIQKAIxEkj1gkCIA0/BH0kK1A0Ah9oCaiDMAKA31gDbX/jagUq8O0JgyqMOw/fyRWidBQTfq3QF6IQVsHUYEH0MfsA45pcg+y4OiNHVizz7Lw0BRS1TQtAX4QldKPogxIKAVGikCIL8lpmmRh5sI5YiwTzQAMP6nFqMegK+i1LwipuoD35BMRWMhEDkkUQuFUMqAHOYSNQBk3uI2wNLubcBkqwBQjK/sAZmqgjoMEomADNLa0pyTJQBkqWficnUkJAizFY1BlwZ9o2pMKwp6olqIwSSCnMn0EgAVH0lngS3JhzTaKYXCGb0Bl8zpIlsHVXAkM1/1ol7VaJ3NdGkDIK+lUuoRwEhBbd5vaWVI1MaEEfOakORS7LxWmgqC/i+Az1LHheArMk0GDWLgEhupFb+BLLFND1eNFB3JJqrsYzC2IAVlM9frYQA0rWx68T5j48YAksvvE9X7QNOpI34Th/Uyq/zm+qs+PY1kIAKO+6/MfIWK18LaUBl9dWVqbSS+AitjcYsT5crcrbPB/eVcH+dPhhTtkT955vhtNnDsaxnOz5aL4denufX+SWJhusCzrYm+57AeWakZXeg4eH0p0azxeTTFFojjVY3Gi/NpY0IPzQPWy+5gweMwHf75Frm63h5+X1mf9s/Plxvv8v94xbVXl+ux3P8E);lineShape=1;labelBackgroundColor=none;" parent="1" vertex="1">
          <mxGeometry x="-2516.1671668997033" y="25.7485546351503" width="10.425295456581775" height="81.41386172841717" as="geometry" />
        </mxCell>
        <mxCell id="y8pGJ15mQiUdOoLxBC6I-10" value="" style="shape=stencil(7VrLchw3DPyavbJIgM+z4/yHqyxHqiiWS1Zefx9MFIyHzZlW+ZaDb6sVevlAA2hg5qbvvt5/+HJ3k/j15fnp17s/Hz6+3N/0p5vIw+f7u+eHF/t00/c3fffp6fnul+en3z9/fP37y4fNcvv029Mf2y/89YqTUNoGkvi3f5Hyv1/8/Gr++PD5YN5Dlsk8htGuzVMJEe2lXttLCr2DfYzE3vbT0L5c22sOksFeyXF1hIT7GenaPucwOlxnGdf2Jfnybl/o/kv363B7+4Lsp+ZQ62SfbEUlgBE6ADQMcoJWQgNAC4W4rI3QdL4ioZxoPfSZQ3Zo5gTbUk8TQCU0wtKWQp69oDUUsqVawpjdkKMT5RwQ0W9ZKbGLOW4m0kYtwtQ8MBJyDYk4zn6vRQQ0ArA76WMGtCCES2pU6wjIBCAV2WqAKgRQQo0IKIQakj0cDwDmONHQEt5SJREqunjayMIA4uFyACR2S4I5zFwp7JZWgAYhnjZAhluSoBwwAJBoAG3XugRQZwBzXEcAS2RGjRVAS8nu1z0JDC9G5/QWDFFtHiFXxUTnRLaFFIvpFsYCYDFdWohLIosEYIksdwQIOXRTj6/DodmWevQcsQO6h9Q5oDr7D1yKZEvDsvfsOIuHSlYYxbm5A0aIpD6MRfVYehYS02Og48rwMnmuk+JSIMw1zBFjqYotUqlhp25zgWjmanZNKaT5mroFNQm5nvHU5svKpEDDCLI1mfzZjjivMDItEFVcKeyAFpQJrBJ09oP5krHPYrTN7Dv48ioNQKKxJVhEWKIR2NNOyMvcN7t61KCMfgNl91DXUFe6HirExhbCvmR3Mke1cSMzuuIC3Wo9i1GvaLt9dsdc/T7sRz2gLuyBSF1c6l8duDYEKFnAhHmFHSVXmecAwRpqACZzTcm3JaCZpkyLRLQzZLalcnKriQOg3TDAYEzdxdTBz6zoGqAuROp8Swk8zbOY3ZKAp3lJND9IRQBTreZp6EI3AHOcBWNBgDBqxOUM1gzQcKgZb5X5bZE+Zh+5Pfx+pqJ4oEw3HrEKbQdWoIVwHyQsDAZgrbc5DY9g4ckyhqLKMEBnZ8ghLzmJNQJGbREEMAH6/YCxULvSQ1vnAOWzD+9WzgENWz6rPJXJdPWCf6htrJLokurHLmyuJAAMuUahfiiW4xRXyOTQNXpnvgOEZu66KqvoZDlXVnnxdKVzH9P1BRwnXNfvaXfXn52KPSMCqJit+WCSWFBj1OFBew5QVLib6GaSWL3n3AGRpz3BEUipvDeJLtR2gPhg5/yW2tL9dCob+hIP24CCUaO7xD6MDxohXxNkaxZafeqiJt8YH1ifC5kv89y63UnDLRVCPvs97EKVRpxG//dhUEQT2Y9h13+AH8Ou//+waxNkDQGsPujKpejC+jzioncKRwAL0ebTiMOWmGYtCfOSdtrzWa4Gzad84l2XrKGZ6iXLfHBLmmh9aMllrQPMlYwaBojzobcnfOzZRsUQTfyW7NBAvlRDIum+FPS0SV/6qKJjIjP5XsgKFsFQsjrtW40HEYQALYkbuQvYyxuPKef98B5UlolP4ePD5YlXpdJq4JMcnuYz6qpG5wyKGbjRGBB8+NaoukiYTJuPsC/MYwFzNs6LmFMqlQkRG/NCO4VlyFtokxqxr8hvbAYkvNKUHj3RfDOnIwIcKQin5PLQ1pXwBQm+6zWEN83tw7c3Hj49PD6+vjBx/D++IWFfvb5doe//AQ==);lineShape=1;labelBackgroundColor=none;" parent="1" vertex="1">
          <mxGeometry x="-2433.928038716344" y="21.86600463538491" width="82.40746257804372" height="94.84625855622198" as="geometry" />
        </mxCell>
        <mxCell id="y8pGJ15mQiUdOoLxBC6I-11" value="" style="shape=stencil(7VnLUhwxDPyavapsyw/5TJL/oAoIWyEsBeT195Gz8TCWZ5pwy4EbzLrHltRqSZ4DXzzdXj5cH4J7en48fbn+cbx6vj3wh0MIx/vb68fjs/514I8Hvrg5PV5/fjx9u786//9w2Va2v76evrc3/DzjPLFvoOB+/X0glPOfJ5/O6++O96v1hZKM6yPVur9efy51BHjycR8QAoU0AAoFB9YLybgBUwHv50jtt/WBiIEBXCmMHnLkwPtjJBa7Hpw/VirOnMeD86REwdpbZX99dpTLsF7IgQDnRIXH8zAlYHBZ/NEBzeIEAEx+jLCG2CNApDwCOMEY6A4pD4DInYZ7NoTRhhRIwJGyOn08Ug5UPAxbGsNcAjkGvMiUTNwcebADF8rjDpKpIoCjOBpdfffbdqol8uORqsahAMCkLlX1IwC1kK4NC6BSRoDlfSuAgHTwmWTcwTucoIowdNUtUMb5RLFOZwKBUI2UCZAwgCeARzZEcsZN0tmyDWASZwGIrn5R3VWoIwaIcesSmj0bfLCAgEtPGpVM6QrjsLB5BUA2hDgBAjGgK3MvlkuOVigbqgIm5aT0+rWtM5oQo1tFCwbS+9wPsAC0QgJ6N/keC5xwL2GbANUtly0ggkjriU0+KACpgBLBiKsCEpBv5WYOkw1oB00Xtl5CZVoTMk5uRWr8olurwEG2vujWSvBRldMtiuFG6U/2AEb6BMuGuikYI7R9AhlUi+3GFJCQDZnctEMGZKqxi/UKwKBoKcD0M2o0CkRl4slLDpGJp8CVbtW/AtQNyEvcTVyRyQMVqJOSydLHbgOSrSiaQYIina18txxFcShdt9YqgHYQ222oDaiyN3qLBUAuaQJl69aIStBmjkYUCJWBSfCRWCrAzBvKPsZuSlMNQv16nWY+we1JXUxc5ygy+q0AmYagpjNoIpimLPUSilwbIcTGAQ26ufTKv9oB1dEkU6XWUAKjY7ElpfXrgN86JWXTJuKiFbJVY409mjne+/X3fh3Y8L/160pX0ydqoRRA1xCsMGnKoSoXytS6CkwIjlSmGuQBIGrvbO7HSvfbts4E237n2nVh78bImbsNByOdE9XRrcn3G5ttwHRnF5ceahtQe5hWN0CoX9cd2FxKCeyN1QYebdDYo5zO3tLb43xI05DiA77p81TNzAFvNrU+yLg+w84hOnthFOGdF+vrRqomqEnsra6WTt29adp06t51Yu0VE9OONUUAFbS9bxQMX+HNY7QzWWB8+WvrZ8C8ZkuJ9gSQLtgB7tX1jqfzgJ7b9wZkbS9Y72zV0R1R4js7luh6JHauV8llvYf3h1O33U4ISr+zw2RwsI10VlWUP2gkcRNBX6n7b/wa8/p6/ePl08/N8e7u/OVo/bv9VKSPzp+Z+ONv);lineShape=1;labelBackgroundColor=none;" parent="1" vertex="1">
          <mxGeometry x="-2315.8869579425404" y="11.388892179999175" width="85.51278545426385" height="98.7344021842398" as="geometry" />
        </mxCell>
        <mxCell id="y8pGJ15mQiUdOoLxBC6I-12" value="" style="shape=stencil(7VnLUhsxEPwaX6ckjZ5nkvwHVZjgCsGUIa+/z2wcmVXLbsIlJ25mmd6dZ89otNGrp7vrx+0muKfnw/7L9sfu5vluox82Iewe7raH3bP92ujHjV7d7g/bz4f9t4eb49+P14vk8uvr/vvyhp9HXJZaFlBwv44PvJTw58Gno/j97mEUb4N4EleZePGDeJNGxdP4dp8kKZPXOsgHJ60w+eBG+SRK3+/zKF/Fxcvypm0a5NVL85flozQd5aNU4n2Tj6N8kUzefwpOl49OQmPyHuRVHNEnSRj9E5MU4v8i1aG8T5flfZQMH4gSSQIFlZrRgr86ngWYw9Po0uglExfZ+1AlJ5nYkLy4hABHki5l9JI2qlJ2UiMCIlEpq8SMgMAAVjgVASwxcsXMM0cX9oUmfmQKKx1lqWROHLnCsisStxogA1lEWswGqADw4rlKAPBFEsnWYqmRERCYDabAGGmfqVsNoBNAHQVAehsFMworQVxBQGZfCEiSBlDmJcVcMkDggOwnACmgEsUrAiJJbwNkNxlNaMYAbepsjamUsOIscJG5NWFNG6AylaxZgQ2lJ8t5QOmZs6qHxFQ6NfsToEkhKlULHJCx9XMShzrRTIq0AbUgcUwNIx5Gxs0a2mh0NR4hKrWCRlcjY+LW1jDSjTfFNrm1VZqtZwGVean1KeQEaLSA7N9pAmRutJ8AldS0aZyBNZx1AJJ9hoDhbfEDs7pgqBedCPUZQBUBiecGpOviB+amfCZyhRldektbAdj8Y4Aw+tWeMNpop5a2AiRmQ+2TwgrAeMYAQEyLkixwdfLSK19oyAKLDbzkyuwllq6WammKAwGssnkdal7VcBRbkokbAey6pCvjvobj/QsxXApE9Qhg5z0D6Jgbr1a1+T1NOrFPlD4Kr6mJWV26F9fkx3ljjlxlgXgzIE81Z+MGUyn1MfIEcHTWtb4Io2v1lPGXpjZmnzXSQuJQ7Sw65kbic6L1WYVzk6deKjbZjiqp6yepS3MiZF8I/Pj6Pq//47w+feF9Xv//83rCbZfnrd2Mho5iAz7bIxggjZG2I3ViXtI+ga0Wap4FTnEjpaEX7aVs9eMXNItncXAYaa19y3ZxtQFLrEC/kC0OAQEsNfKkkgHYEJdKP8OsAMp3UloQwKgyRlzPRO2xP79XSzh9R77aXDIHvHRaHp+fmBJO37FSXqo4GsdGZ+mABWrybNnqkLojHyqngW/ZbZIoTwsv64eJyodpjRiIva5T6KpyIgmxw5sDteom77fuDctu33Pkgv9h0guF9n/Fyl/W06SQrfuPKR34skEx3165nFD0P5+FFWuY36wobpX5vY1i/Xo6VmifeLu4o0OFdke8iFNywMzhtxIRW6ujfBuloDLsRGFE1d4knvHtlPyRdLip0wjLHZlxKcLDlPF4xpPg7VeDXNx+vNxC3u7u74+XmOv/462lPTreeOrH3w==);lineShape=1;labelBackgroundColor=none;" parent="1" vertex="1">
          <mxGeometry x="-2166.416603928824" y="13.125630148096775" width="138.2350045005098" height="152.57361735296027" as="geometry" />
        </mxCell>
        <mxCell id="y8pGJ15mQiUdOoLxBC6I-13" value="" style="shape=stencil(lVjZchtBCPwavVJzH8+O8x+ushyr4lgu2bn+Pr1RZlewq3b8pgNmBmigYRdvXh/vXva74F7fTsev+5+H+7fHXfy0C+Hw/Lg/Hd7waRdvd/Hm4Xjafzkdvz/fn7+/3E2S06dvxx/TCb/OejlICZNWcL/PvxRx8e8Pn8/yT4fnC/lUJXkjHxuRD1Lt+a1el49NslPyVTKTx/ubku9SiXxo4vX5PkrORCFJT1qhSA9EwUvWCvjln882FXyVWLVCHUdsK0QpUSnEJJ7Y4J0E7aTkaBRwf9fyVRx5ETCjLQCsAjE5SzHyQAVBUZeg5UuQ1KlLnfZQ6dKIAYBF1B6qdQD3Gq6DjnLLEkni5Cgta6A6qcRmmNi10T1JJDZUJ1GnWi80arVYt/YsjdjQvFTt1g6riJcaUsVZoz1RwN9dI68h/wi0pwfoOEyBI9CDidEUsD4ic03BVjzEntmQRsWa0f2ODahh2obUB7q23dqlFK2QaKQnbGp4R3jJEQUnyZQYz7GEG/STUDhzIQo4T+eDb9RLZV25M62rJdmM84GW+twsWqFQiA0Ik31SoPmAMrpxA3lSKuO8CwVPKnfK0nWkPe8+UEgaregWid8QNVq7JIIMyBdtcxvYumZy0NDj3RA+9Rp5nGEklHpn5FkvQZCzZTDs/dmNzFrkWUHKfvy92BtJaqK1JtN5aEmFfDNFe6D2P+UBCE8CsH4QIEdf5K2HoMBSHy4tuitMmcwwhJh5q9CI0QBFWN1QP4Q6KERWK1awhtGF4W6VN4gDtWEjMSu/wGR+k8osyLY3V17sigUSWBk7H8XRjhaZjRbAsZWnle6D8rmP5y7yrFaj3xRrrycgBe/whhEOGr3dMZFnpp9F6tAK2mEwWmjEah95Ozdx3Mn4XbKUExhiwxGYS9IYivMscI1MecONwhhmthXqIGezQqOzSO+D2FzQNUYTvHPiTIUPlK/hChMIcPXEGCFapFHAKzmrNVa3SocFEG2jACadyQ0tDvDPCkh/Ul4wXURTUhfHXU0InaBwHKt4xa8UeElC5zFMe8IXMSJ226paGwuH7UFyngJnBUczAjlshjDkeWW9bUVHUHdI4FZgzZwfudVsPs9k2xbb90x9hXgo24SGjz2pYm0lH2hZnfiuBuq0wiEPwhhhWXyjDMk3u3OayAJzUbBlsvEl1YrE8yIJjzQzfNHyguEvGIvp7iL5AeEh7zh1KaMyLPKsZoNBens+KxR5tRpxdDiddi/OvofxzWRXeG5sSbfls+3knkI0r6kdJZuQb2ZDSEcuyHczvdMUg3w16wG6joO8Yfy8Y077Dx3fzP2TRngWecYEEV/DZDNtTR9der8vjw/Lhv3h8PR0XtBf/m838vjpvM2Pt38A);lineShape=1;labelBackgroundColor=none;" parent="1" vertex="1">
          <mxGeometry x="-1979.2429880657264" y="18.188897969758045" width="83.45517412815752" height="98.3665991171891" as="geometry" />
        </mxCell>
        <mxCell id="y8pGJ15mQiUdOoLxBC6I-14" value="" style="shape=stencil(lVfLbhsxDPwaXwlJ1IM6p+l/BIhTG3XjwHH6+Ptyu5C9onanyG0tc0SJnCGpHT+8H57e9rvg3q+X8/f9r+Pz9bDjL7sQjq+H/eV41a8dP+744eV82X+7nD9en+ffb0+T5fT14/xz2uH3jItCwU2o4P7MK55i/LfwdbY/HV8X9lyJQ2cfqQqwdxRSv78j57cBIVDmHpBJ0jbAl/Z3A4RMvgKAUPEdgAvFDI7EFEt/Z90CeOBA0t8h1eZzFRAT5T4LWUhAWFOh3B+pZIpuG1AcSe4AwuTCNkC89SBCDPIglULsADUQg7DWRKmPkq4EwD3vlDp9mKpQBomo1aZaVxyIq+7HYgFID1W5FiygIAA3ci4AlWFcpT/SIg7riEwpDS5Q6ngFUAokhx/DBBJRdD9nAR6ESQGh56umpoA7KKAO3GB8h1QsACoiNurcAIUKILgU8sUCMigD1VEKFpAQXZnKcKSMALkdYAEQpKChWNZbx9iSnCnHCkioDNzovwBUBJABoE0JKEgvXbMFZMClGikMokbluPqhMOmtQFiVGjkOAOBByReHsiFAQEpvGSSa0JHcQO+bBjclagC4aX0eUIYyk2AfLcH2Ue1BqFPnRK5nq3Y5AR5StPOS3KaD9dbu2n6LTo1qa5BhFqhQcT61vC6mjQrukMn13NNxpiIHlhjTvATSNnTpySMKke0+OvGhquc9VSOeVsrXI+pamb7PrGiS0e2MOB3khM64KRt7VPHY23rkiNHMzY0wd3sP7svJSt81lq/bi+1TeL5QSptahEf6qBpkaw9EGWPr9Hf7ABpz1NE3GPuIzqPF18Y/g/irPKIz9kgvap/MxAbz9dk32P/t9eP+4Hs5nk7ze3H5v30g6tL8uOTHvw==);lineShape=1;labelBackgroundColor=none;" parent="1" vertex="1">
          <mxGeometry x="-2493.506537139986" y="-10.093829920850112" width="21.03509166006185" height="180.28184162334324" as="geometry" />
        </mxCell>
        <mxCell id="y8pGJ15mQiUdOoLxBC6I-15" value="" style="shape=stencil(rVjbThtBDP2avFpzvzxT+h9IhBKVEhTo7e97ttFsYu/ugUp9C4s9HtvHx/bs4s3r493Lfhfc69vp+HX/83D/9riLn3YhHJ4f96fDG37t4u0u3jwcT/svp+P35/vz3y93k+T069vxx3TCr7Oed+LCpBXc7/OXkCXFv18+nxWeDs9XCl1yV/IxSipMPujzkx8WV+WbtKrlm8TG5KuWz3lY3DrfKfniJaRteQSoaYerl0Yc9kmC1wpFmicKXaK+UoMFkoJQxBWtUCT0bYUYxGet0CSTK8UqSUe1dSlEIWXxwSrUTBSa9KYVkmTidPZSkw5rHHFbV4gW2QVfiA+Tgs40oNQJNHKQbrDaB7q2FKpOXEJmCJZylayjFJMkkukC8OtMI5UsD6Ut6jPS+qy4cdQKdVDCukKz0EAqGVpblKCjhLhF4kOrA5vXnMEsVJvp5LgFbxMHXuuElWqVri2ERC1UoF9bAC0UgqVSJGmnwVSRJA7QyFqh0bxB3iS6SOHnR4Ok9xxwuqDn6liXrxapHEZAdtWlgPgQgqlOkpV35P51Lt2r81nhRCnd3p/4C0S0ZuPD7p9Hei7xz+z8PLrSJb+ZQRpzgc5X4+fDvI4nAMoShgAFbcB72nTQiItRAFEwCKFovVVIxOeJHRdXYi2hFBvUaX4gPqBqDLP0MT5sErweFiqvAlSxaWoUddN9tMfostzhqlHqKUqniOoAOc5C3VaBG7SxiQln5D2Tj8v7NAbSeUq5VKX/j/ItSNb3957SKEY/01594QO8szMFrsS6Zc+WeIFRNpJ3dF8d01hGL9mYsWeq/eAU0gELQ3ZYTJhCFa+9xmzVSEPuwYappDFFrydinsxmBYyPrOVjRnDWAiUXdDRjwY0j1hXwbzNJRaqQl5NUposCRmrbdAB45gPoxOxrYWx8Wwpm2clgccYwKDBtYeIQRnlYSHWJ1kI5BhdIZneJlFQRVjOVowjZ0ok0NdMVCq0HoD9pLKFC2LSDLdzbRsXnnYh5IVkTrFWBJYrxutIJEjxkuLgn2kx8tM1nWlPZDCZukThPfA525MEQxFjGjdNm6FXafRa0Byyy+zgL7cwZw9kdIfFt0A1KvNqLErmPty8XMQyQbMibkRwzKn0aGd7N8uAbUmjznnjV2ljzXCzwsFhIZ4uLNXBm2PUqk1KtPFvfs60YyAc2n67IswG42uEI8pXEv42nvav4sB2n25UoBNoz+yI+8R15m68kgTSPf37d/IACflweUx8OT0/nt9jr/9vHV3w6P9zG2z8=);lineShape=1;labelBackgroundColor=none;" parent="1" vertex="1">
          <mxGeometry x="-2415.8671242560313" y="199.79094783243113" width="70.30722012973749" height="60.05623275258066" as="geometry" />
        </mxCell>
        <mxCell id="y8pGJ15mQiUdOoLxBC6I-16" value="" style="shape=stencil(lVjLctswDPwaXzEkAL7OafofmYnTeOrGGSd9/X2heqiIkLWe3GSZKxLAYrHSTu7enh9e9zsOb+/n0/f978Pj+/NOvuyYDy/P+/Ph3a52cr+Tu6fTef/tfPr58nj5/fowrZyufpx+TU/4c8EVqjKBOPy93BCK6f+Nr5flx8PLYnkj1WF5jMS6vd7+jm0AcCQRABDiNB5IKEUASFTqANBEWgCgUhmPlDLlsA1gJskDIGcKIAa2541ZKkIZACRScIBGNQNAIg4DoCoVUAeNHtACCciSClUed2BqIEuqPkslkTQAyJ4auVJEMbRVHQIx2CExhZFLydgN6pCU6pglLZQAIEcqcQQwBJTYuTkDAtUKAKUncQZESqBDq4U4Fs5KKYBLtVJVH3RgoAG2wxh0sp4G1GiVZNzBCpdB4WIIFMZCGJkCUIHWKI8qYIkLSMiqr1ypsBCteLpW6yCUJuvRsdR1bsLNvK4AimIwcQ0egISpNn8k05kGgq6l52SRJUU7WNbdDpkSyFLN1Jz0KSmiayF1R2Ko98bvPKpACVRQWue6znS1sQfo2ngFMC4htqofowYoiHy552R5JEQ+k9Lsg84o6JW4WloFqLEBmkur4n6YR9qCGoKCbp7eRj5BaS29rssxigqXPPmsp1E/WIu6fphaFGXJBsRaBADAWrSujqRANYzevGrRBoK2BvIiYNKGRMBa1Ellgibx84Dkh1y2MYpEwLLuRlCBabUDJGf6tCvV9cne+okX3gHNrCx9LC+OlAFbbQY645pxA9nzkpPKSBlkKaXuCReV5hv+x9FbqADyTX5qTGub71z3cMX70MWsv44IXu8n5QFbiFIbdcbUE71BcPV0tSZELce68sYC3TcHSk7JMhxBMXv22YCA71nsfWWq0BuvtFXnpr3O1m6c59ey2Stfr0K3wfN7H0MmrXyxRYTmlZFmLLJC373ykwJf+YJ3Ygx738rrDt9FfCNWV9zYLfvG8jaePXQduE42P3HmYDYK5XzwjXbsirNYjiTIZybAt//ZEHwsRz6qeBJE6ASLV2juk3Bj+ac+jdxcbhcfX2GeDsfj5SPO8n//1cZuXb74yP0/);lineShape=1;labelBackgroundColor=none;" parent="1" vertex="1">
          <mxGeometry x="-2358.9635525031354" y="176.7319206091546" width="61.652898485887626" height="63.35418023649092" as="geometry" />
        </mxCell>
        <mxCell id="y8pGJ15mQiUdOoLxBC6I-17" value="" style="shape=stencil(lVbbbtswDP0avx5IlChRz133HwWaLsGypEiz29+PnqEkYhwOe/NFx9a5kOKUnj62L++bicLH+XT8uvm5ez1vp/RpItodtpvT7qxXU3qe0tPb8bT5cjp+P7wu9+8v88r56tvxx/yFXwsuZ0iaURR+L08KSP4++Lys3+8ON+uZkcKwnggUHwNKAfMASILGjwG1gssA4IxKjwFSUGSkUJHKY0BroDoApCE2F9BGDi2iOSo16d+7AJRDcAAZcdxSqwjVIS1INAIEkh1ABOUR0Lr16z4kK+ssgwNQp3OygOgBAogtaXac1vBVIyuDHKc5geMIILDjtALKuCWNRvUAWi5jPUhFdLakpGWUVTKaB6ig0WlJXeh147KtOCFUB6CvQ7OA5mWpIRTLITjGzekfoyEMceKtYTbGzYF3CiiGgDAaoTUaHBIazmAKIkE8Epo+AyhI3h8CsgEoCc8ITZ/Jd0NxWNe79N3osJ4mQS32F+wBCJEtieiwZm1cbGXyWpm2d+vcpWwfAuL/APSQM52pxt56VgFJj5TRORb3DCK2KuWE4FgdyfZvPXi9gIf+/6vTyM4RdFcOgux0mYAySlp6dtf59sxc6IK9TIDHnkcQR/5mm3BEdnpwzP11Xx/AnvZ68AWz3utedDfz+DWWgk2PWuUUQOK+3Svf5PBNqk81cnr9PVOfDK5ued+fZ8JxvT8T/nuG1IvrAPq22++X+fX2vR1Y9dEy7KbnPw==);lineShape=1;labelBackgroundColor=none;" parent="1" vertex="1">
          <mxGeometry x="-2281.5009379173825" y="207.67571086634825" width="12.691258515167517" height="34.28969038495227" as="geometry" />
        </mxCell>
        <mxCell id="y8pGJ15mQiUdOoLxBC6I-18" value="" style="shape=stencil(fZbdcgIhDIWfZm8zQAg/17Z9j85U606tdqz9e/tmZ0c0uJ47xP0I5JwEBl59bp8/1kNwn6fj4W39M76ctgM/DCGM++36OJ50NPDjwKvN4bh+PR6+9i/z74/n6ctp9H74nlb4nbmSKZeJCu5vngmZ6jzzNAO7cX8FVKEsBuBKrgKg9oAE8gkCbLeUhEoEQKSUDZDLeWYRKIl8MEDRmHwfyBrBG6Amyu4+kDxxMoB3jhwgYu7TVAsVkFcWCs4CTBEoF4RctKeOxHIf8IXYpikHikAIf+MNUW94AGSSaoAoFIE3AlOyeWU+p2E5S9yfQZcQILVuQOwZdJNoS9Ls3wA5u2XZTIHECqeJ9kDpSaauRiNVcAY1QhdBzeLBli5WazpkSsBLV25uRaqWRyFawTQzRRIQYirJzq5atkBqLfouwqUxLBepthWb10vrWZY6UOAeyKCCtDV625mm9gmUC4Wc3VLJMMIE1BsA2FW9JraVlQB7n3c9oMKhCLEvIM1zBPZ25/umNQ1tVEC2G+fFCC8g398O2hNQuQlVu752DBfA+q0ptnqO5JFmeuIuo9DY7KjY71UxdJV4EntifPWorW++R/dC4t7V3DlIB5cHx2bc7eb3yvX//QNFp+bHDT/+Aw==);lineShape=1;labelBackgroundColor=none;" parent="1" vertex="1">
          <mxGeometry x="-2283.8206725687846" y="186.9506144339755" width="6.675056817307775" height="6.664623166225283" as="geometry" />
        </mxCell>
        <mxCell id="y8pGJ15mQiUdOoLxBC6I-19" value="" style="shape=stencil(fZbdcgIhDIWfZm8zQAg/17Z9j85U606tdqz9e/tmZ0c0uJ47xP0I5JwEBl59bp8/1kNwn6fj4W39M76ctgM/DCGM++36OJ50NPDjwKvN4bh+PR6+9i/z74/n6ctp9H74nlb4nbmSKZeJCu5vngmZ6jzzNAO7cX8FVKEsBuBKrgKg9oAE8gkCbLeUhEoEQKSUDZDLeWYRKIl8MEDRmHwfyBrBG6Amyu4+kDxxMoB3jhwgYu7TVAsVkFcWCs4CTBEoF4RctKeOxHIf8IXYpikHikAIf+MNUW94AGSSaoAoFIE3AlOyeWU+p2E5S9yfQZcQILVuQOwZdJNoS9Ls3wA5u2XZTIHECqeJ9kDpSaauRiNVcAY1QhdBzeLBli5WazpkSsBLV25uRaqWRyFawTQzRRIQYirJzq5atkBqLfouwqUxLBepthWb10vrWZY6UOAeyKCCtDV625mm9gmUC4Wc3VLJMMIE1BsA2FW9JraVlQB7n3c9oMKhCLEvIM1zBPZ25/umNQ1tVEC2G+fFCC8g398O2hNQuQlVu752DBfA+q0ptnqO5JFmeuIuo9DY7KjY71UxdJV4EntifPWorW++R/dC4t7V3DlIB5cHx2bc7eb3yvX//QNFp+bHDT/+Aw==);lineShape=1;labelBackgroundColor=none;" parent="1" vertex="1">
          <mxGeometry x="-2283.8206725687846" y="186.9506144339755" width="6.675056817307775" height="6.664623166225283" as="geometry" />
        </mxCell>
        <mxCell id="y8pGJ15mQiUdOoLxBC6I-20" value="" style="shape=stencil(lVfLctswDPwaXTEkQYLkOU3/IzNxak1dO+M4ffx9oapSRVDeTm56YAkQuwDIgR/ejk+vhyG4t9v18vXwY3y+HQf+NIQwno+H63jTp4EfB354uVwPX66X9/Pz/P76NFlOT98u36cVfs64mKj4CRXcr/mLJ3F/Pnye7U/jeWOfhLJr7DN5YC/626wv5OJ9QC4WoB5QREXXCw2AK5UKAJVCbAApkPB9QHUUcwMQppQgoLZ7yIEKAnhy3ACKh1lSQG5DKpmcAEAkVxuALsEeANYkroBMGQOk5aEW4gwAKqVqAbXgTbfaU58RMR2pFAtAPGRNYmrV6hw5pO9q1acuKmBOtL6SBQjYdUok1QICkGvSNBWbVwHaSI64Y84BqtVDFKsNRh5Spz5ZBLyfJUeFLQDJVTTibAF/mdmnWpZ6WQGJKkhrYarSeUAl5xYhbPcA5Kq/Q7EA1Mkm+XvLAyqIjZo3VHvUmcoOIKOYmMTEVIlBQWjj4q6qMypS/d2XHBBT9ov8twBQctrea9c30KZTthNiogaNUZ0HXckVXKOpA8Au8FFAzF2z9EtfuOfBt8RNMwjwoAAxAL/027se2pCmOQo8xGo72TSpAXG66dSqVZlBUy7qeq2WopYU0BJHOxb1PFOBNEKg0GZJT0wR8OC7ms7LxNi175IayIOcdqv7pfz2oyEvxjyA1Vd6FnMHy0BPk9GYJ8CW9zb5bjn77dvrVBJjjxQ9cdXZI261xpy1B/Ew2yGl5AFqWY9oNj8R1by3anZwLMdoe/VK9779B28X/7fXh39XmZfxdJpvQtv/9uqjn+ZrEz/+Bg==);lineShape=1;labelBackgroundColor=none;" parent="1" vertex="1">
          <mxGeometry x="-2262.2844306169436" y="161.93238769769857" width="9.013091356945488" height="110.18764398928852" as="geometry" />
        </mxCell>
        <mxCell id="y8pGJ15mQiUdOoLxBC6I-21" value="" style="shape=stencil(lVjLbhsxDPwaXwmJ1IM6p+1/BIjTGE3jwElff19uDW0syjtpbvauZiWSQ3Kondy8PNw+73ccXl5Px2/7X4e714edfNoxH54e9qfDq/3ayeed3NwfT/uvp+OPp7vz/+fbZeXy6/vx5/KF32ecJCpxQXH4c36SGqXy78mXM+Dx8HQBSLG/XgFKKQOAvdYRUPueVwE5U3BHKtTqNqAEiuwBWQAgT4BMFQEqxTwApFANAKAURxskUE0QUMYd2NzAEMAjIDYMiBTTCBBi4NbMJGPgGimImzGDR2YoBd1ebx7J1a0v4Dwcu32rAfYFYHFMVKu3WEAQ7HtttCCW7rSrACPy6CFmHGWS8fuWfih3Snf4ytNIBfDUGDAabMms4PvmjzJyIjeKYAM2Fo8WGA+RxTIFrVZKYAezsMnIikTxHZqONqh2Im4lQh0zp2EelUY8HqlZGBqgRSaZAA0cSYMnhgEU7GA+SfEjR9JGZdoBZX8T0pHbarkAbGipH2AFWAUDR2p5AphVgEvNau4EYFBhWiWtHgDzR33CmQ0oQVvrzLnwUsEAT2/tzWgT4OLQYKQNUEajl0iDXmWA4PKBKaEdtBNhBQgOXPXd0AANxaF4CbAAkJeSr9zLkZDRqXPz0mhkg31vcivqDQaIc+CQDeI7ulEjIC6Jj7SRL6PAJZIpRaGX8lRbLYEQoFBiD3gnRX0CJag/jXwekGHLMnrLlKKMM05dimLBGkOgEHyoYa1svs5YC6pgCwPwRNeIk3oGoGq8kHO0+sKsrR7kuxweHazLcfQApBCtjwaX1do145Yo9q3dWgBq7XGqfQXukC3pnV9XN1zXM8GPDm19cl1iqZ/I1FQriEOsPklr6jpwQyU6OVOkq7rrGo7yyO4skEphmhC5j4Ab6132iLyzvo72coYhWLvZymyFDs2+W5lMDuD72kfBtzmJseiWcX2BNdXs5bHMCxQxMq2PPeBbiruOBRLnvUVf3SAJ3VOS52fqaX0966OfzhXSc1HbLr72BPDfAG0EWAQyqL4GcMXUGArnwjTdF+BBrLKfq1ImBUGowfd+q0xwiMm+q+WV51u3KlInACqNq1S+AAi6MGheg2XTfcCtVkecQsoVpprMR1J40bNch5UJgOZb6XPaBSABL8kkC80GNBsKd013aTSItAGieLcyqNc2o+sUOMZDvWuzOUENtuzg7hmkK/xNG8YabPRuKNLmpeIB6DpsiYOzIcCBWKayZ/yF1Pjo1ep/AOzH203u/eHx8XwRfPne3/zao/OtsXz+Cw==);lineShape=1;labelBackgroundColor=none;" parent="1" vertex="1">
          <mxGeometry x="-2266.4529490680497" y="200.54171616409621" width="88.87396090075072" height="62.512383341056655" as="geometry" />
        </mxCell>
        <mxCell id="y8pGJ15mQiUdOoLxBC6I-22" value="" style="shape=stencil(lZzZktzGEUW/Zl4RtS/PsvwfihBlMkyLCore/t5ZngC6cRN9EPPGBbeBqsrl5lZv+ac/P//yx6e3FP788f3b3z/9+8uvPz6/5b+8pfTl98+fvn/5YX96yz+/5Z9++/b909++f/vn77++//2PX9aT60//+Pav9Qv/ecfNurW2UCn89/1fSttG/f+//PUd8PXL78+AsvXsAAkAaatdAS2/BoyxzaiANACQ9987AHXr8zWg960mBaQOgLjVeQaU/SMvAc0+ICigFwCErUQHgE+q9sXJfRKcQw1bjbroCCdtu57dLhV4Q0lb9ucAJ53H1pxoBDi4XN0ntX1V14C0laCACYvOYQuiD33/iUtAGrvkPAEGSGsydZFzGFslgC1a3jC3CmtIpg9nabWznw0AJt7ng6sJxTuObZx3ycQxgmhEE4R6Bti2wklHkyV5w0QFMqNxXkKLuwpeq8PWz6fQ8lboFPYdPJ6vWwD9jFuQ7zFJhTMIesht4O8HNcNt7of44nvEqJpNC6Q5Wx/n59NuA1/sp6hyL1sAiehqUfsh5tduRAWomxeB84px1/MD0NFPxbIl+aKBnjCaJTnblj5R8+NU6zUCmmw7tHLe1JHQPtqpiSKbbyxwynZs+gZzO/RJfTc9B6BuA/TSDGqRT2q7970GZLUtBiBPmJ0oGaDBJ5W4taoAIhjmxvLQRZNBNYs+HYC21eytHpwpFJkvZ1ANQPalDjVgBigAMPs5uwIyfFIr2wgKCPSGvh/Ts/CBDevmnKsCCgEOdXkCRCJ6Jnyy6Lxr+TWgKud5sNFrgMlmUkAGM7PMVlUAWlY7adnWtBOCa9cZ1FcZIIPVGHGLAohoyOz3YlEAeStbYqwKiHAOdq5B3hBQlgwwpgKI6C0N7grAT2pqZpZ/AH0YZsicQ7mJlHJRAJn7MbcYFRBJNOYeSD0BAix62ibKJ42d714D4v57TwBatAEkeDMAGTILQMNQQGKAcpOxS9c1IKs+mNJ2cCgGECPQj7N/BZhTAYnD9OzoD/E9AyiBaxhEz7pboScAMUQD5KmATLtUleMaIBKgOQpn5IRkqe3//QQgcjL7HgE/ASLJUleHYry40zl4nc47mXgF0DWk3QFcAw6VfwoFiEobQILoHpirT2UzFpwEfoPkiIwbDNKHuZOdp/CKON8CnNdg8RsF0QYQaTV+QxGrAdLZzFhESYxsnYMAEpJEAwibWRyNFy221QCJ9GGotLbA+uAyOBamN1r0UCptxJTidAMIOamdT9qxymp2iQGSwanMvc1qSK6hFjaVTaXVABTHGSAKIO+B2itT2VwGB9O4znobgJjAdOFxjbuleuWyJKNRA3Jvc7vJJ8bok4Ju68oGUqJ4XORME/HWqsFrYVNpRLec3W6emBjrLieQzZCBf1g+8yze2dZAEUpWZpwjeiCz1ZITSHPXwVfJbokUU0Nz31xyLyXkS2ZU0nlb49yF5RrQ1KHEigSrOoIV4x4gXAOiC8BRWMvUisARwV8/33cxOI4NF1AcWYrIu03yxa4GdD4lqSqE3SC8SrKIswpI9kxPJGoNuy96VTsYQ9ZLQa49L74woa3IXd15Rr6Qj3TkYSo4zdXUFtVdKa6fr3v28nDNyIXzkd15PI/7WV0Mg1FVLhoZcoxkzwuJHHt4/CoNKPJwELJXz0sBLQb0TzlpntE0HiXUlbdiwoxBdjn3mJE3Z1dmXElpWkNUkmpmDhcd1YtHTqMvgOzSQJ6wPkks78QYzC/aNJmyTwaQhNidKidNJiXO0WVn60yZURmS5oZMm8kpL2k9a3NqyERMffJZlhJnDHJVnpAG5qzNIIkC5cBv8BYyYonOAJIVX/tGgKGiYftG5GiRrbORWftG2+q4jgGwPnxUIQ9AxegiT/VTttHECL0jzNxgsQBnFbWNppBqAWTR4/YNUoEOLK0ewGzqApCREfpFGwGiNMkCSCcAE7bsUp+L8pH1nprvvYkjs0+ThD1P/lJaz6Jh1JtIWL7K3GC1zmU9VhaQTOVUQ2YhEPHOtWgpjQ0knuvgzoDJJZniwkKL8JHaHkmRAzCRmxhgOgAlAMqR2DkAAy1fycr+J/etlKJ0b3KH0mr+OZ+0xd+T1nDUeQ/AUQa6BjSVpTGR/qxGMqnhdOT0FiMJhx5tL3C8AlRfcSRZMsmRqumRun8FEM5n+oCi4ZziSBjaLoBsK9ul4iKfEfkchiuzBhaNoWUlA2AFfuy09gmAsjTU8i0AnYNLow+2reuT8gc/SWuaAZN65WjoeQbwJ2mF5XCTLwGuvEdut7jk6gKQ8A1XS+O2rLVLrghKAcc6Bw8gyzdcpWveCV/xAO7mEKuxFs271Fwh90ZFm3sD+elLAFXgF8CpKBVy16KdEaCGtLWtvj7Ou5Q94EZFPwqIH/0k7RcJ2MJyqUA3ptKrKPrpKyNA8fQCNAV0XoNmfiY7RZdGv1egDwOUCQQsdy/xbgpAzjc0QWxOMfAbylAAJaQWwDXJIBNwpbHFBPiTJJmzuPeNy3KtRI10uivRXXzpQ1nr0bA+viicvKHzG5prwzmiolcAET7jrUiwqoqGBRxUzjDurcy4Yq+FsXuJdi1CQTOTVactfsAYKO3s6JENvbH3UQ2TxTRUQSxBjevkk/OR3wrkQEeza1RYoSIHo2Ir74LR4dpqbsNdNd+3AbVw6fuQPfqkAH+SZGjv0w7ZJzYoM+h6J24mFrLrzrhPzoho3Kd/FHCbYNIppNsUVvVJMj6H6tNwN5mQ80nndidLxacSeZeEYeWK1PhRrH4CEOmzPZEqaL7JlDt6nzMLX9fOhlW4oZNuLn8asS3fABKXZY5e155IKXEirVy1LKl3cw9LdvY+NWwS9nNOiZu1DSB2adUruXIkmZA1IsLVr+KK/JQ6WaUmWQN3mNgxSeokctSUg7Y3rWIWiUbQpPEql5G0um7WeHMOUZteYkHClN2sVsw4u5hdH39M7IHS3ud2ACL2yy5ple6MG9uata4z+QW+uZtr60Wpd8cYKxfllH0v9b40ANKIx8ynasahsVWtbryOy8B+UpNr5d5E8vNdBwoTP+/yHxG717Ib7grIYEpUgQtM0JPmMm64cNFEQ8DZwDW1qr03VKb0YVXGKmUNKv83w0F+7GUXwOvni+ts4Epuba6zoaJ/qo5Nmamm3GdLGtDfFPlbU2Jhm0QNL80JXeJJhZ61BL9cHHySH/XJGZNDKysi5evGMynJVaMHWrrhusQKr8EiLnE3j8axS8AMOldTGs6kTKecj2T/NSDr6O7Sj5vRBgFE7kR1Q11Lo+gNVQmeAbClvukwfs3oci56jjPWAiwYz9JvWLCYtvqmXfmaZuuny0yaWcBBnKEdJrVzh/xQzllvZoOm8ubVjk5rcMFzY1N/MRYQsdNnuqCtRVTR6ULbxuN7c2rnYcs4XLcSOzIWULi7fKq5b9z0Ml3N/mY84yk7dSA6z425jpE2cRxvTiVVPbBhmm4iKiLNm66Xu3PicLprFDqPp67pCTfghON4fc+wPQHIjU5XUjcvhm9o2tpgAJyua24GsfG4RVUrcD+Z5ptYcISqKp/snae6ilt0x+7d6RhW7zzbkNXerzlgUursWn0G5g1ncnNjA8nGms9wc5QU0M+oLe+d+8xWQ0lTADq5oLay87jFmG5bJ8bnBkiu0HpDmKQMelNNGy7B1Y+PvAY0vZpjVTXBLq3LCpICKH57zO0/AahONIqr4kS0GiO7sXnuSXlMpD8ByD8M1+m8qmn0ScFVG/jGkz61F8IAZGa6b/XJ2On8KEY8AagXwoy7MKyRUZa667IfN9NErpd6MHfowfUG8SUPravVWOJIAFd+GzxKsQjYVACxxHp5nQdfzuVv56BgdN3/4daAbQG+1NVwlx53dz0ByE8XZ70Hz3evLJEDYC911pEWs4WYFwvOCHBr9COP97xLdIGOu1VtcD94yuoUb1Q0Rc1TLNNG1NgVBNdVGHR1lmNkN/5hZZxduxLe5hXdYP5goqvR7iJk8AJ3bIu14uVTyn1u5mY0w925STNq9qpzAiFoS9q6nAt+/yr4oURR0LSPhVdk8Vz78bKZYCyqi1kzzo0PNRVmYinhGJM6hTpx1iS6e6pqx6pHdP09lfuhk2sCN5tM5dvkCHcNGB7arsqiy8S0b2pqUFeLEAFcS2rhKCP5sYuOQbSfgSsc2Oeq5m7143BLhiRNby7zLEmJXql4KVRxt4SUiuVbO1cxF4+On1fuXyqZpSDBuLz9Ey/nctcXlpubsKLb1oJR94pPuwLIEy6/N9w5cKR0McLD9/LoGhoGb7OonVy5aM4c+AtJ8V4en0/nC0kXYDgA6PR0c78LwDc7SFLp5laEBXCfhHF9vUjx46UfVwC89OPqk6ggtQDOzOANTNXdwto43+iu/yqNEzJVnW7h9p6PX8V8D7A/PG5+/u3L16/vF0c//7/eFG3/9H7LdP75fw==);lineShape=1;labelBackgroundColor=none;" parent="1" vertex="1">
          <mxGeometry x="-2881.158208207799" y="-608.6313195669497" width="908.1106217706409" height="1163.8440911548323" as="geometry" />
        </mxCell>
        <mxCell id="y8pGJ15mQiUdOoLxBC6I-23" value="" style="shape=stencil(lVjJUhsxEP0aX7sktZbWmZD/oAoTXHEwZcj292nFpfGo5XkUt8G8J6n3Zcd3b88Pr/tdcG/v59P3/e/D4/vzjr/sQji8PO/Ph3f92vH9ju+eTuf9t/Pp58vj5e/Xh4ZsXz9Ov9oJfy48Jl8bKbi/lx88+fL/h68X+PHwsoIHkjzAM3FC8OjH05lC3MZ7qmHA6wkM8YkHPAcqFeHjeH4MlPH5acAnTxIQXuKIrxShOoMb1ZmoQnwazy9YP2qu8fwixOD9od/e8cLwPUxufI8IiUd4P+q/BvIQHww+EmeEj6O9aqYk2/hMYfTPWsgBfCXHFh+AfrwabLrAI4fLlL2VICOLeetCNVF2gKDnGRnUxgx0qkYeU0RVNwdBFh3VMUlI7VLdJlTiUWgpMGxS6TpZCAn6nYaVvSFCLRXf/WwdCcAORdUqlsBAS6KGG+0gGn1ABhXRWFoJEQRDi0Ujg4eWVruWaAkJeKtGo5tuCEBL6pvV3ODwk+qUYRz0JSXwTAC+VKuNOCUIUKsShK3QqGYqwcaDqhXc4J0j5yyjorxUJ72qbwD/VkIRSyhYCFMK1b8dKP1KCFMtgb4hk5qUgG4QyhMBJVclmHakhRzSktj6o4SEtCS9nK0IHjnTTNAgRAEhUxbQVIUJPKbvFnLIl6S3RCtCwWqtbAmoZjXXmGMUZ4E03YD6vObexWrJ4aC2Miy94idiVJCa6tRcBdg8tEQzBXXGQljLBdi+tWQ5xajHecYm/A9i9NOEfIPgkaljT77rG5AMaqapUsM6WidLMwmQQW51GwyedA3hFQH5knYbxQR1go299jOxWIIA19COyRJyrwBbPZkti4UKUKt2fcncoMMSyAJRe4vRNdSUCbiGdq5xbnVxb2xKUHNHRJjUqv09KqPa35u627InyjOhi7gQKuxc1Vm9xaMOK/VisIzo18y2MWOZJNOyM5y5s7MqgiNQn9jWMx8IHj3fzHzhg/Nt1yAwmr01gMYmanymHYPO3BG+x4/v15k+An26PuksO4Pcp+oNfJx2Emgmdl17650HiOOpDradCujQ9fwRz4qH8poQCwEWBGdbYc+w9Pu+wbqutFAJ9HZ89jBafB8+Ohz3Utr8JQNP8HSxpzNKV+SCgaNICXY36PowtgFnsXD4mJQtHLhxsLPp4kdbmyxn4GjxyHax42Ap0pbEwlFjtjRVVzia9D+5k/0Qrh/X9e/T4Xi8bI/X/7frYv3psmrm+38=);lineShape=1;labelBackgroundColor=none;" parent="1" vertex="1">
          <mxGeometry x="-4127.485047004935" y="-329.99937701800684" width="258.9383259314481" height="186.10122499429542" as="geometry" />
        </mxCell>
        <mxCell id="y8pGJ15mQiUdOoLxBC6I-24" value="" style="shape=stencil(lVjLbuMwDPyaXAlJ1Ivnbvc/CjTdBJttijTdx98vg0BOSNtTFMjBsTmWSA6HlDf88L57ettuUng/n44/t3/2z+fdhr9tUtq/7ran/VmvNvy44YeX42n743T8eH2+/n97ulhern4df1/e8PeKY6r1Akrh3/VGoMs//X2/mh/2r3fmMVNvxj5TlXX71KkHYx8DMa8DcqHcLaBRiOuAGiknA1CfSl8HNKZWLKBTy+uAnkjsCpyoAh96p2qDxAX6IGnEZAJU4gIAhSRbQKMI8iBCYvPAnRIAxBAoWETmcWdtTywWUHFcG+VoACVBJ5q+z8a1CKUGuFGo2DBVJROIa1F623JoeRB4ma6Vgt1Sj1TACiyUbVg1DAH4wNmvIMp4tELwPkgeNbVco426ZZ9o1QIRUECxBaH0QmRSgOOSAipwOlVfEBcCgwpKZdT8TWcCpKsKl/daRp2vAWKdOYHiqtqaPYDRlpg4zRIBhEYBKXsAozCxZ580yG8FNPEArjBKXD0goLCWGb8rdroMct4DkA91VOQdQIAwKV1j9z4ktKU2y/R0Z7Xk3AqdIl5hDqhABRa2JBQ/cVo8oKBM1/H4DtDRlspSxSHZUGr0GeAT8jUPaEhn5vRWfUZRmhdQxz4slWjGAC8CjQT78EWA9l2XhzSmwOWOEr18dw0rkBmdXpKlRi9Q+bKOWHZLTSC9SxzSOwESzHRNfkt16vVrY6ILa6ljhloeZ3TsdKMxbnISRrlMgKnFLAOU3pZLOVAFedA0iY2Sjh9IjLvWtB3JdK5kwNY+GzZ0XkFdtMVxXpgAcVT5cqbFjwIqCwIAOqayGwVkeLUmZNWdURL0QR9XG6UGRSN6CWCKgNuBmg1pgqNP8O6m4c6KeUzOHLW22SkgUgeuhkGvm3mGb3eNVrkA355thQU4gAXfMwPkcvTNQ3cHyjf6I1iAe09U2JuDNClFojdHEv21Y/yn5npx+2Lwsj8crh8c7p/7Lwx66/p1gh//Aw==);lineShape=1;labelBackgroundColor=none;" parent="1" vertex="1">
          <mxGeometry x="-3919.8999249244876" y="-219.9265733913212" width="95.08188161273698" height="138.59474739911403" as="geometry" />
        </mxCell>
        <mxCell id="y8pGJ15mQiUdOoLxBC6I-25" value="" style="shape=stencil(7VlJbtwwEHzNXBskm+s5cf5hwJN4EMc2bGf7fVoZUBJLoxrkkpNvs3SJZC/V1dRBP7ze3z4fD8G9vr08fT3+PN293R/04yGE0+P98eX0Zp8OenPQD5+fXo5fXp6+P96dvz/fTpbTp29PP6Yn/DrjQpUSJ1Rwv8+/eJVS/v7y6Qx4OD2uAVFqGAFVktsH+CZ1XCEkCQwQJdQBoCpN9wFNQhvso0pt+/ZJVAf7lMTHfXuV6Ab7nKQmZu/9YF9sRXJg8+j4/KqS8759lQb2TbInDk3Sxg01W4DF2PyRRkAWZR6K0gICGjmCRQjOYABHAMlJGLOozWlyGRAljlFunmZRKhg2cyvL09QwT2vkgIqVUBpNpJSljiuUzDM7iy8IiCTSlvlFEeDYGZLEMdKW3JGkhgHCmEtlZpBdgCLAs0hbdYGXVBJza+rlNQOCNLaC+aQiIPI4ZI8Azw5dJADA99jvAWpCQGFbqn3H6xWYl5p4h2egJWosFDdeIofOse94FThHtlQcMqWlBgUUiRUBkZDAxLwbAOsN1ZrfJpciIeMWkARy7X67DEjYobOXxFbImN7J0xI1JgUS0CaNuNWIEQDWk5R1LO0bmEVDozU98RwAQqe2vdSADlR6176cexlpKdJqyLb86NQ5U3YZAERMP9EuxSS0v8LDBewTK87UaX2xZ3lt7TOPtRkks/1ErAPrtoyO7PkJ7JU1qo3CMC4gRTA1hQz29Pmpi4PF3nGGTwntmX8KdmbX5caefcHzMi41eve4H9o/Kopa4wjWDWr/e8kHx/xphODBntZLkYb5TLXUhtmV5+csnFb1xfxp/ID1Tut3oym4hl9GjsWezQiW/6WAP2m7t3qsYE/9Gbv7lnxIvB7rGF/H632e+RZ7NjVuhanrBLwXL41g71h9/aN9VswHRzte3uizwJVKwPxMlE9scoD88XYAJlRyr9cZUK4JFewApSvCy4DSRcNKRrAe7J3DpmRKpbA9VVzC+nIhtNI2s76pXiY8TNo0ELHz9HwZEHvezIAqjjCLaVIcV7gANGmDE1TtodnL1bbZUmDF3HC4tk3S6n+fM/8Crmqu9znzf82ZjOttXNnEIXOxn8BLJgeIW63i0uZmh8nHrDjf1NDzd7f/jBVXEz+DeR0AlV7smpdAMTR/TWK3MdIt8pnFd5/MgEJFSYzd6zOAu1UjquZVj9m7zobLY1uCcaWP2FFs3g4s1D03V25VYu/xUsQ6DLt73fRQI0qWq6ZbRhfl1KX6ZQ+JjgRg0o9RTMZ718g5zHucpDT0dnQZYDIEhInSCCzSd86KTAnDzuBAXHnJ5MxhoyYNoOSeyQDFIYB5ddFeKwBNbOvgWAq0+RgAJuBpBcLDYTPiGYAFLlQk7in27AwVRbEBKnNr6zteXRsFFmlrPooA9i4lbLqVV3FsSxUHWwOwSf7f38hdB9iH5QXg59PDw/n94fp/fGFoP51fNurNHw==);lineShape=1;labelBackgroundColor=none;" parent="1" vertex="1">
          <mxGeometry x="-3806.564003877219" y="-294.2065582005024" width="116.2799922121235" height="117.5905236065533" as="geometry" />
        </mxCell>
        <mxCell id="y8pGJ15mQiUdOoLxBC6I-26" value="" style="shape=stencil(7VnLUhwxDPyavapk2ZbtM0n+gyogbIVAipDX30eTjYexPNtb3Lkts25kubtlafYQr77fX3+7PQh/f3l++nL763jzcn+IHw4ix8f72+fji306xI+HeHX39Hz7+fnpx+PN6e9v18vK5dPXp5/Lf/h9wiXSuICE/5weMNX678Gn0/KH4+NmeaMShuVKLZ1fHpSCDuvtSQznAZIp8QCITBlsKGbKaQCk0ve4C0iRdIygkUoBgEppzKFYzHYekO0I2wCoa8x9gFCQEVCpKQTUEdCEMsghR0ojb61AHgwg4gFZIMAx3SoFnHSLHqAZAhzTrVEA4jMAiwdkBAhefAaoKGmmMkVoQK0G4DFC4PXRvvpa52m7JxDC5KrFAxQkYYAwJSGACDOYjvo25graUqEkHiCAiFSmpEvPah+QqTjmEiXg0ZQm5pgCKhupf716NEMxGUAcgGHZMEAbibM6g6qAnZLUEWCVB+tbR4+q5YAsZzyMp6Tcud8F6FRnslICEdTkPZp6KSQgQkl+S5YVgwilEY+nZCYUwHRN3g+LzYH4rFj/T3EFSM9q/xIVSi7pTAy21IymUd7GTAVbMn85LRkzEQA2ZWhFNLwnK0PuWsSVrE1UG6ChCLVbeAWE3q3sA4pXX7ErAIipKQl7ACp9RgRPAEb9UqQmUw4o6ejlWi50ZNL7ow1xDWlDvFy1XgK4WmkAyLRpzdWZAm9qK9YyMq3aFX+OhxQ9AEbQqfQploYZbIoQQTU2tdbkAQ2ptfWWbXNKBQOaeh4UScMAjul2CZBHgIkP9Q5L0s5xod/15461TJ6G4tNul61F0Sllis0DAopg4lO/pXpB3tEDoPjEdyd2rII97S3aYLv+dkCYbvZIGd2KxbfrufWOfx8wzSh2yVVAXFEq6gECIhSZegftk9d+s2GGbD4H1LhqoKz+lCoazNT7wSyKWgHrdqIr9yaWCzOKk/d6bmdnlPGUrA9FA7IB3IBcMyz3SwPm5t0GLWqA6kaUCJl+n0bXlgsl/T6NdubePo3iCG+cRkufFzYARklPzYYVdMTckvSo74rFlNR3JzbmJOBRm0b9Wy+Fo180Xl3/k6HlYuhCWN/cGdPgWCX4LUW7AUCEIN2Rq74rHC7zxFuvO7vLedoP3A77miTwLuE+fr0uRxPc7GU4IfJ0NBf+u/MMw96W/d3PUJ1TM8LQkNYxslvOSDe9sdksR7r0BYjh+4XoezuGd9/0Vohh2/XG1/MXl9uH118C7o4PD6cfErbf+18O7NHpV4f48S8=);lineShape=1;labelBackgroundColor=none;" parent="1" vertex="1">
          <mxGeometry x="-3709.845267053799" y="-369.1838376423091" width="87.74209569306355" height="107.30409228816582" as="geometry" />
        </mxCell>
        <mxCell id="y8pGJ15mQiUdOoLxBC6I-27" value="" style="shape=stencil(fZbdcgIhDIWfZm8zQAg/17Z9j85U606tdqz9e/tmZ0c0uJ47xP0I5JwEBl59bp8/1kNwn6fj4W39M76ctgM/DCGM++36OJ50NPDjwKvN4bh+PR6+9i/z74/n6ctp9H74nlb4nbmSKZeJCu5vngmZ6jzzNAO7cX8FVKEsBuBKrgKg9oAE8gkCbLeUhEoEQKSUDZDLeWYRKIl8MEDRmHwfyBrBG6Amyu4+kDxxMoB3jhwgYu7TVAsVkFcWCs4CTBEoF4RctKeOxHIf8IXYpikHikAIf+MNUW94AGSSaoAoFIE3AlOyeWU+p2E5S9yfQZcQILVuQOwZdJNoS9Ls3wA5u2XZTIHECqeJ9kDpSaauRiNVcAY1QhdBzeLBli5WazpkSsBLV25uRaqWRyFawTQzRRIQYirJzq5atkBqLfouwqUxLBepthWb10vrWZY6UOAeyKCCtDV625mm9gmUC4Wc3VLJMMIE1BsA2FW9JraVlQB7n3c9oMKhCLEvIM1zBPZ25/umNQ1tVEC2G+fFCC8g398O2hNQuQlVu752DBfA+q0ptnqO5JFmeuIuo9DY7KjY71UxdJV4EntifPWorW++R/dC4t7V3DlIB5cHx2bc7eb3yvX//QNFp+bHDT/+Aw==);lineShape=1;labelBackgroundColor=none;" parent="1" vertex="1">
          <mxGeometry x="-3566.7211067903245" y="-309.3697067853325" width="6.675056817307775" height="6.664623166225283" as="geometry" />
        </mxCell>
        <mxCell id="y8pGJ15mQiUdOoLxBC6I-28" value="" style="shape=stencil(fZbdcgIhDIWfZm8zQAg/17Z9j85U606tdqz9e/tmZ0c0uJ47xP0I5JwEBl59bp8/1kNwn6fj4W39M76ctgM/DCGM++36OJ50NPDjwKvN4bh+PR6+9i/z74/n6ctp9H74nlb4nbmSKZeJCu5vngmZ6jzzNAO7cX8FVKEsBuBKrgKg9oAE8gkCbLeUhEoEQKSUDZDLeWYRKIl8MEDRmHwfyBrBG6Amyu4+kDxxMoB3jhwgYu7TVAsVkFcWCs4CTBEoF4RctKeOxHIf8IXYpikHikAIf+MNUW94AGSSaoAoFIE3AlOyeWU+p2E5S9yfQZcQILVuQOwZdJNoS9Ls3wA5u2XZTIHECqeJ9kDpSaauRiNVcAY1QhdBzeLBli5WazpkSsBLV25uRaqWRyFawTQzRRIQYirJzq5atkBqLfouwqUxLBepthWb10vrWZY6UOAeyKCCtDV625mm9gmUC4Wc3VLJMMIE1BsA2FW9JraVlQB7n3c9oMKhCLEvIM1zBPZ25/umNQ1tVEC2G+fFCC8g398O2hNQuQlVu752DBfA+q0ptnqO5JFmeuIuo9DY7KjY71UxdJV4EntifPWorW++R/dC4t7V3DlIB5cHx2bc7eb3yvX//QNFp+bHDT/+Aw==);lineShape=1;labelBackgroundColor=none;" parent="1" vertex="1">
          <mxGeometry x="-3566.7211067903245" y="-309.3697067853325" width="6.675056817307775" height="6.664623166225283" as="geometry" />
        </mxCell>
        <mxCell id="y8pGJ15mQiUdOoLxBC6I-29" value="" style="shape=stencil(fZbdcgIhDIWfZm8zQAg/17Z9j85U606tdqz9e/tmZ0c0uJ47xP0I5JwEBl59bp8/1kNwn6fj4W39M76ctgM/DCGM++36OJ50NPDjwKvN4bh+PR6+9i/z74/n6ctp9H74nlb4nbmSKZeJCu5vngmZ6jzzNAO7cX8FVKEsBuBKrgKg9oAE8gkCbLeUhEoEQKSUDZDLeWYRKIl8MEDRmHwfyBrBG6Amyu4+kDxxMoB3jhwgYu7TVAsVkFcWCs4CTBEoF4RctKeOxHIf8IXYpikHikAIf+MNUW94AGSSaoAoFIE3AlOyeWU+p2E5S9yfQZcQILVuQOwZdJNoS9Ls3wA5u2XZTIHECqeJ9kDpSaauRiNVcAY1QhdBzeLBli5WazpkSsBLV25uRaqWRyFawTQzRRIQYirJzq5atkBqLfouwqUxLBepthWb10vrWZY6UOAeyKCCtDV625mm9gmUC4Wc3VLJMMIE1BsA2FW9JraVlQB7n3c9oMKhCLEvIM1zBPZ25/umNQ1tVEC2G+fFCC8g398O2hNQuQlVu752DBfA+q0ptnqO5JFmeuIuo9DY7KjY71UxdJV4EntifPWorW++R/dC4t7V3DlIB5cHx2bc7eb3yvX//QNFp+bHDT/+Aw==);lineShape=1;labelBackgroundColor=none;" parent="1" vertex="1">
          <mxGeometry x="-3566.7211067903245" y="-309.3697067853325" width="6.675056817307775" height="6.664623166225283" as="geometry" />
        </mxCell>
        <mxCell id="y8pGJ15mQiUdOoLxBC6I-30" value="" style="shape=stencil(lVfLctswDPwaXTEAwec5Tf8jM3FqT1074zht8/ehqkoxwWg1uVEilsRjsSQHvXvZPzzvBscv18v55+7P4fG6H/Tb4NzhtN9dDtc6GvR+0Lun82X343J+PT1O388Po+U4+nX+Pa7wd8IJZTeCHL9NP5hc+Pfj+2R+PJxuzBNF35gHYr9uLp5Cu7wIiawDXCSfGoBzJG4d4B2xNgCNlEEEIc0BLiHUHDAImSnFBhAD+bwOyEy5NIAUiSMAJCrtDlkpgywVR7nNUi7kCwBEcm3dilJQACiWFyWTA0FXQEkWEEEMwkzMFvF/jdUtpAUUUsCNOp2cBUQctVcLQGSq01wsoKA0ZUrdDgVVLpPmziUM4A4QkUvJkmlMK9oh2YYY0wBUYAT03NhwqViAoh3yLBI3ANRyddpWeknDauGyBSTcEOK7HYDOjOTrdiiYfCnYoGWjR9UCAnDp8x7daIhifCrkkJTVILoO2lCm4C0gIbouDty2HIphCXE5tD7ysMqmXgZQEEuhboNAfE1d6TYU/8sAT8mkyWOCC6kpNc99/vkxFy3BcyABWUrV47bUKZEHgh+rcLVBxwi7OgR7zAUlh64bTLEFaFUmdKEJsw4tFxqFZ5ColTJxFEEM9WhvxTVSAlxl8m1Hy3z5WDF3xhtYY7aHj8BmruZizNElo1MjmfFr5i1BeRbMFXNJxjzA1dUbc4V5D9GYC3QmizGHF21i6zsSLOl9Z8B6ocjWd3S1+9qbYtO8Dj6eL0+H43F6/dzO2+dO/TU9lfT+HQ==);lineShape=1;labelBackgroundColor=none;" parent="1" vertex="1">
          <mxGeometry x="-4047.2913611131025" y="-420.90878606491754" width="181.02223215431326" height="182.86128373901812" as="geometry" />
        </mxCell>
        <mxCell id="y8pGJ15mQiUdOoLxBC6I-31" value="" style="shape=stencil(fZbdcgIhDIWfZm8zQAg/17Z9j85U606tdqz9e/tmZ0c0uJ47xP0I5JwEBl59bp8/1kNwn6fj4W39M76ctgM/DCGM++36OJ50NPDjwKvN4bh+PR6+9i/z74/n6ctp9H74nlb4nbmSKZeJCu5vngmZ6jzzNAO7cX8FVKEsBuBKrgKg9oAE8gkCbLeUhEoEQKSUDZDLeWYRKIl8MEDRmHwfyBrBG6Amyu4+kDxxMoB3jhwgYu7TVAsVkFcWCs4CTBEoF4RctKeOxHIf8IXYpikHikAIf+MNUW94AGSSaoAoFIE3AlOyeWU+p2E5S9yfQZcQILVuQOwZdJNoS9Ls3wA5u2XZTIHECqeJ9kDpSaauRiNVcAY1QhdBzeLBli5WazpkSsBLV25uRaqWRyFawTQzRRIQYirJzq5atkBqLfouwqUxLBepthWb10vrWZY6UOAeyKCCtDV625mm9gmUC4Wc3VLJMMIE1BsA2FW9JraVlQB7n3c9oMKhCLEvIM1zBPZ25/umNQ1tVEC2G+fFCC8g398O2hNQuQlVu752DBfA+q0ptnqO5JFmeuIuo9DY7KjY71UxdJV4EntifPWorW++R/dC4t7V3DlIB5cHx2bc7eb3yvX//QNFp+bHDT/+Aw==);lineShape=1;labelBackgroundColor=none;" parent="1" vertex="1">
          <mxGeometry x="-3869.7514151050573" y="-239.0233540718839" width="6.675056817307775" height="6.664623166225283" as="geometry" />
        </mxCell>
        <mxCell id="y8pGJ15mQiUdOoLxBC6I-32" value="" style="shape=table;startSize=0;container=1;collapsible=0;childLayout=tableLayout;labelBackgroundColor=none;" parent="1" vertex="1">
          <mxGeometry x="-3727" y="-262" width="120" height="120" as="geometry" />
        </mxCell>
        <mxCell id="y8pGJ15mQiUdOoLxBC6I-33" value="" style="shape=tableRow;horizontal=0;startSize=0;swimlaneHead=0;swimlaneBody=0;top=0;left=0;bottom=0;right=0;collapsible=0;dropTarget=0;fillColor=none;points=[[0,0.5],[1,0.5]];portConstraint=eastwest;labelBackgroundColor=none;" parent="y8pGJ15mQiUdOoLxBC6I-32" vertex="1">
          <mxGeometry width="120" height="40" as="geometry" />
        </mxCell>
        <mxCell id="y8pGJ15mQiUdOoLxBC6I-34" value="SDSDA&lt;span style=&quot;white-space: pre;&quot;&gt;&#x9;&lt;/span&gt;&lt;span style=&quot;white-space: pre;&quot;&gt;&#x9;&lt;/span&gt;AS&lt;span style=&quot;white-space: pre;&quot;&gt;&#x9;&lt;/span&gt;&lt;span style=&quot;white-space: pre;&quot;&gt;&#x9;&lt;/span&gt;&lt;span style=&quot;white-space: pre;&quot;&gt;&#x9;&lt;/span&gt;&lt;span style=&quot;white-space: pre;&quot;&gt;&#x9;&lt;/span&gt;SAD" style="shape=partialRectangle;html=1;whiteSpace=wrap;connectable=0;overflow=hidden;fillColor=none;top=0;left=0;bottom=0;right=0;pointerEvents=1;labelBackgroundColor=none;" parent="y8pGJ15mQiUdOoLxBC6I-33" vertex="1">
          <mxGeometry width="60" height="40" as="geometry">
            <mxRectangle width="60" height="40" as="alternateBounds" />
          </mxGeometry>
        </mxCell>
        <mxCell id="y8pGJ15mQiUdOoLxBC6I-35" value="" style="shape=partialRectangle;html=1;whiteSpace=wrap;connectable=0;overflow=hidden;fillColor=none;top=0;left=0;bottom=0;right=0;pointerEvents=1;labelBackgroundColor=none;" parent="y8pGJ15mQiUdOoLxBC6I-33" vertex="1">
          <mxGeometry x="60" width="60" height="40" as="geometry">
            <mxRectangle width="60" height="40" as="alternateBounds" />
          </mxGeometry>
        </mxCell>
        <mxCell id="y8pGJ15mQiUdOoLxBC6I-36" value="" style="shape=tableRow;horizontal=0;startSize=0;swimlaneHead=0;swimlaneBody=0;top=0;left=0;bottom=0;right=0;collapsible=0;dropTarget=0;fillColor=none;points=[[0,0.5],[1,0.5]];portConstraint=eastwest;labelBackgroundColor=none;" parent="y8pGJ15mQiUdOoLxBC6I-32" vertex="1">
          <mxGeometry y="40" width="120" height="40" as="geometry" />
        </mxCell>
        <mxCell id="y8pGJ15mQiUdOoLxBC6I-37" value="DA" style="shape=partialRectangle;html=1;whiteSpace=wrap;connectable=0;overflow=hidden;fillColor=none;top=0;left=0;bottom=0;right=0;pointerEvents=1;labelBackgroundColor=none;" parent="y8pGJ15mQiUdOoLxBC6I-36" vertex="1">
          <mxGeometry width="60" height="40" as="geometry">
            <mxRectangle width="60" height="40" as="alternateBounds" />
          </mxGeometry>
        </mxCell>
        <mxCell id="y8pGJ15mQiUdOoLxBC6I-38" value="" style="shape=partialRectangle;html=1;whiteSpace=wrap;connectable=0;overflow=hidden;fillColor=none;top=0;left=0;bottom=0;right=0;pointerEvents=1;labelBackgroundColor=none;" parent="y8pGJ15mQiUdOoLxBC6I-36" vertex="1">
          <mxGeometry x="60" width="60" height="40" as="geometry">
            <mxRectangle width="60" height="40" as="alternateBounds" />
          </mxGeometry>
        </mxCell>
        <mxCell id="y8pGJ15mQiUdOoLxBC6I-39" value="" style="shape=tableRow;horizontal=0;startSize=0;swimlaneHead=0;swimlaneBody=0;top=0;left=0;bottom=0;right=0;collapsible=0;dropTarget=0;fillColor=none;points=[[0,0.5],[1,0.5]];portConstraint=eastwest;labelBackgroundColor=none;" parent="y8pGJ15mQiUdOoLxBC6I-32" vertex="1">
          <mxGeometry y="80" width="120" height="40" as="geometry" />
        </mxCell>
        <mxCell id="y8pGJ15mQiUdOoLxBC6I-40" value="" style="shape=partialRectangle;html=1;whiteSpace=wrap;connectable=0;overflow=hidden;fillColor=none;top=0;left=0;bottom=0;right=0;pointerEvents=1;labelBackgroundColor=none;" parent="y8pGJ15mQiUdOoLxBC6I-39" vertex="1">
          <mxGeometry width="60" height="40" as="geometry">
            <mxRectangle width="60" height="40" as="alternateBounds" />
          </mxGeometry>
        </mxCell>
        <mxCell id="y8pGJ15mQiUdOoLxBC6I-41" value="" style="shape=partialRectangle;html=1;whiteSpace=wrap;connectable=0;overflow=hidden;fillColor=none;top=0;left=0;bottom=0;right=0;pointerEvents=1;labelBackgroundColor=none;" parent="y8pGJ15mQiUdOoLxBC6I-39" vertex="1">
          <mxGeometry x="60" width="60" height="40" as="geometry">
            <mxRectangle width="60" height="40" as="alternateBounds" />
          </mxGeometry>
        </mxCell>
        <mxCell id="y8pGJ15mQiUdOoLxBC6I-42" value="" style="shape=stencil(rVfZbttADPwavxLce/mcpv8RIE5t1LUDx+nx96XqbmNS0QgB+iZLHC+PGZK7SXcvu4fn7Sbyy+V8+rr9sX+87Dbp0ybG/XG3Pe8v+rRJ95t093Q6b7+cT6/Hx+vv54fJcnr6dvo+/cPPK46pywSK/Gu84PDnxeer+WF/vDHP4+swj1SAeSdpxrxRysvmoVDNxj5kCgAQE1XrvjrEsgxIiVoygBRGBt4POFO0LuVAuSwDSiHuBlCYSlsG1EqJDaAqIC0DWiGxLlWh3EEVki9yqyQg6C4k0QD0LyJwSfQEG0NvGFDH538AoQRcEqFYDUACBXSCDGbeAHKFAEcNiRQjBLi0ahoSdkksNSRTBdSYAO6ESgHoTWaFk0YZp7U5l/qaS8VKenqDs5SSBwiuA89OENAE1OM+OwFWWkOMPugCBKSfc/dpTSsAd0KBipsAVtNKjQLazOSxC3pFop2alajSG/VWBXguhRHVUuFC84AViebkAX974RKgzpqArEg0+6BlRaLV1yECxQXWgenyqlPsY0c0YlQImfG7r6bJRa3dE9FVCxE8oGONhmIAN3n4X4gy65YN8y8NxdzUrgMN6cipjrAMw9Yp6PjX83izNKqb1VBrFABAlwG3PdQ+FpD31w0N0cZQOhxCutCwdSkLbBy6MmU7hJIODSAJXcqyrUMU2Px07Us2aN3iUOPoPqv6D2jK6XZi6R2YBETAVK0/fayZC+YuQR3ylP1AbLCHMQW3vMGGxDMCwZWbPRvKmrltdtodYWbYbdsUgSB57O5vt4sIdhGmaJ0Jo40t5d3SkgeNFszd/shQiOzHK+5uH7x3rZrrw9sV72l/OFxviLff/ZVQX12vk+n+Nw==);lineShape=1;labelBackgroundColor=none;" parent="1" vertex="1">
          <mxGeometry x="-3586.2595051956887" y="-124.36154691876027" width="258.79797156394005" height="46.18188832365458" as="geometry" />
        </mxCell>
        <mxCell id="y8pGJ15mQiUdOoLxBC6I-43" value="" style="shape=stencil(fZbdcgIhDIWfZm8zQAg/17Z9j85U606tdqz9e/tmZ0c0uJ47xP0I5JwEBl59bp8/1kNwn6fj4W39M76ctgM/DCGM++36OJ50NPDjwKvN4bh+PR6+9i/z74/n6ctp9H74nlb4nbmSKZeJCu5vngmZ6jzzNAO7cX8FVKEsBuBKrgKg9oAE8gkCbLeUhEoEQKSUDZDLeWYRKIl8MEDRmHwfyBrBG6Amyu4+kDxxMoB3jhwgYu7TVAsVkFcWCs4CTBEoF4RctKeOxHIf8IXYpikHikAIf+MNUW94AGSSaoAoFIE3AlOyeWU+p2E5S9yfQZcQILVuQOwZdJNoS9Ls3wA5u2XZTIHECqeJ9kDpSaauRiNVcAY1QhdBzeLBli5WazpkSsBLV25uRaqWRyFawTQzRRIQYirJzq5atkBqLfouwqUxLBepthWb10vrWZY6UOAeyKCCtDV625mm9gmUC4Wc3VLJMMIE1BsA2FW9JraVlQB7n3c9oMKhCLEvIM1zBPZ25/umNQ1tVEC2G+fFCC8g398O2hNQuQlVu752DBfA+q0ptnqO5JFmeuIuo9DY7KjY71UxdJV4EntifPWorW++R/dC4t7V3DlIB5cHx2bc7eb3yvX//QNFp+bHDT/+Aw==);lineShape=1;labelBackgroundColor=none;" parent="1" vertex="1">
          <mxGeometry x="-3481.223277898026" y="-228.20088354314498" width="6.675056817307775" height="6.664623166225283" as="geometry" />
        </mxCell>
        <mxCell id="y8pGJ15mQiUdOoLxBC6I-45" value="" style="whiteSpace=wrap;html=1;labelBackgroundColor=none;" parent="1" vertex="1">
          <mxGeometry x="-4599" y="-90" width="326" height="173" as="geometry" />
        </mxCell>
      </root>
    </mxGraphModel>
  </diagram>
  <diagram id="5ozhwy14YFsKgbrR11lw" name="Page-2">
    <mxGraphModel dx="762" dy="313" grid="1" gridSize="10" guides="1" tooltips="1" connect="1" arrows="1" fold="1" page="1" pageScale="1" pageWidth="850" pageHeight="1100" math="0" shadow="0">
      <root>
        <mxCell id="0" />
        <mxCell id="1" parent="0" />
        <mxCell id="xQeTD2x7nZeERhqXPmxo-1" value="Text" style="text;html=1;align=center;verticalAlign=middle;resizable=0;points=[];autosize=1;strokeColor=none;fillColor=none;" parent="1" vertex="1">
          <mxGeometry x="80" y="155" width="50" height="30" as="geometry" />
        </mxCell>
        <mxCell id="xQeTD2x7nZeERhqXPmxo-2" value="" style="shape=parallelogram;perimeter=parallelogramPerimeter;whiteSpace=wrap;html=1;fixedSize=1;" parent="1" vertex="1">
          <mxGeometry x="220" y="310" width="120" height="60" as="geometry" />
        </mxCell>
        <mxCell id="xQeTD2x7nZeERhqXPmxo-3" value="" style="rounded=1;whiteSpace=wrap;html=1;" parent="1" vertex="1">
          <mxGeometry x="240" y="80" width="120" height="60" as="geometry" />
        </mxCell>
        <mxCell id="xQeTD2x7nZeERhqXPmxo-4" style="edgeStyle=orthogonalEdgeStyle;rounded=0;orthogonalLoop=1;jettySize=auto;html=1;entryX=0.427;entryY=1.03;entryDx=0;entryDy=0;entryPerimeter=0;" parent="1" source="xQeTD2x7nZeERhqXPmxo-2" target="xQeTD2x7nZeERhqXPmxo-3" edge="1">
          <mxGeometry relative="1" as="geometry" />
        </mxCell>
      </root>
    </mxGraphModel>
  </diagram>
  <diagram id="Qg8hR7uc853fEF-IS4lc" name="Page-3">
    <mxGraphModel dx="790" dy="443" grid="1" gridSize="10" guides="1" tooltips="1" connect="1" arrows="1" fold="1" page="1" pageScale="1" pageWidth="850" pageHeight="1100" math="0" shadow="0">
      <root>
        <mxCell id="0" />
        <mxCell id="1" parent="0" />
        <mxCell id="9WYH4gbxsB4dHX_XUqKe-3" style="edgeStyle=orthogonalEdgeStyle;rounded=0;orthogonalLoop=1;jettySize=auto;html=1;" edge="1" parent="1">
          <mxGeometry relative="1" as="geometry">
            <mxPoint x="110" y="230" as="targetPoint" />
            <mxPoint x="110" y="230" as="sourcePoint" />
          </mxGeometry>
        </mxCell>
        <mxCell id="9WYH4gbxsB4dHX_XUqKe-6" value="ext_operative_limit_nodes()" style="rounded=0;whiteSpace=wrap;html=1;" vertex="1" parent="1">
          <mxGeometry x="10" y="30" width="160" height="60" as="geometry" />
        </mxCell>
        <mxCell id="9WYH4gbxsB4dHX_XUqKe-7" value="" style="rounded=0;whiteSpace=wrap;html=1;" vertex="1" parent="1">
          <mxGeometry x="10" y="140" width="160" height="60" as="geometry" />
        </mxCell>
        <mxCell id="9WYH4gbxsB4dHX_XUqKe-8" value="" style="rounded=0;whiteSpace=wrap;html=1;" vertex="1" parent="1">
          <mxGeometry x="30" y="280" width="120" height="60" as="geometry" />
        </mxCell>
        <mxCell id="9WYH4gbxsB4dHX_XUqKe-9" value="bauu9074..cxx" style="text;html=1;align=center;verticalAlign=middle;resizable=0;points=[];autosize=1;strokeColor=none;fillColor=none;" vertex="1" parent="1">
          <mxGeometry x="30" width="100" height="30" as="geometry" />
        </mxCell>
        <mxCell id="9WYH4gbxsB4dHX_XUqKe-10" value="Text" style="text;html=1;align=center;verticalAlign=middle;resizable=0;points=[];autosize=1;strokeColor=none;fillColor=none;" vertex="1" parent="1">
          <mxGeometry x="15" y="118" width="50" height="30" as="geometry" />
        </mxCell>
      </root>
    </mxGraphModel>
  </diagram>
  <diagram id="ZS7qyWkB7BDGNWfSCTri" name="Page-4">
    <mxGraphModel dx="790" dy="443" grid="1" gridSize="10" guides="1" tooltips="1" connect="1" arrows="1" fold="1" page="1" pageScale="1" pageWidth="850" pageHeight="1100" math="0" shadow="0">
      <root>
        <mxCell id="0" />
        <mxCell id="1" parent="0" />
      </root>
    </mxGraphModel>
  </diagram>
  <diagram id="EGNRZ3dCI4cjuoSj7bB3" name="Page-5">
    <mxGraphModel dx="790" dy="363" grid="1" gridSize="10" guides="1" tooltips="1" connect="1" arrows="1" fold="1" page="1" pageScale="1" pageWidth="850" pageHeight="1100" math="0" shadow="0">
      <root>
        <mxCell id="0" />
        <mxCell id="1" parent="0" />
        <mxCell id="vrNZyz2fNNGCofHLTlVb-1" value="A" style="text;html=1;align=center;verticalAlign=middle;resizable=0;points=[];autosize=1;strokeColor=none;fillColor=none;" vertex="1" parent="1">
          <mxGeometry x="105" y="378" width="30" height="30" as="geometry" />
        </mxCell>
        <mxCell id="vrNZyz2fNNGCofHLTlVb-2" value="Text" style="text;html=1;align=center;verticalAlign=middle;resizable=0;points=[];autosize=1;strokeColor=none;fillColor=none;" vertex="1" parent="1">
          <mxGeometry x="165" y="378" width="50" height="30" as="geometry" />
        </mxCell>
      </root>
    </mxGraphModel>
  </diagram>
  <diagram id="ZITGVw69DEjUNe4-Iw-d" name="Page-6">
    <mxGraphModel dx="2450" dy="1613" grid="1" gridSize="10" guides="1" tooltips="1" connect="1" arrows="1" fold="1" page="1" pageScale="1" pageWidth="850" pageHeight="1100" math="0" shadow="0">
      <root>
        <mxCell id="0" />
        <mxCell id="1" parent="0" />
        <mxCell id="acYMGbwTfHjo12XaJq8Q-13" value="" style="edgeStyle=orthogonalEdgeStyle;rounded=0;orthogonalLoop=1;jettySize=auto;html=1;" edge="1" parent="1" source="acYMGbwTfHjo12XaJq8Q-1" target="acYMGbwTfHjo12XaJq8Q-12">
          <mxGeometry relative="1" as="geometry" />
        </mxCell>
        <mxCell id="acYMGbwTfHjo12XaJq8Q-1" value="main()" style="rounded=1;whiteSpace=wrap;html=1;" vertex="1" parent="1">
          <mxGeometry x="370" y="260" width="120" height="60" as="geometry" />
        </mxCell>
        <mxCell id="acYMGbwTfHjo12XaJq8Q-2" value="" style="rounded=1;whiteSpace=wrap;html=1;" vertex="1" parent="1">
          <mxGeometry x="610" y="90" width="120" height="60" as="geometry" />
        </mxCell>
        <mxCell id="acYMGbwTfHjo12XaJq8Q-5" value="" style="edgeStyle=orthogonalEdgeStyle;rounded=0;orthogonalLoop=1;jettySize=auto;html=1;" edge="1" parent="1" source="acYMGbwTfHjo12XaJq8Q-3" target="acYMGbwTfHjo12XaJq8Q-4">
          <mxGeometry relative="1" as="geometry" />
        </mxCell>
        <mxCell id="acYMGbwTfHjo12XaJq8Q-3" value="start service" style="ellipse;whiteSpace=wrap;html=1;aspect=fixed;" vertex="1" parent="1">
          <mxGeometry x="300" y="-180" width="80" height="80" as="geometry" />
        </mxCell>
        <mxCell id="acYMGbwTfHjo12XaJq8Q-7" value="" style="edgeStyle=orthogonalEdgeStyle;rounded=0;orthogonalLoop=1;jettySize=auto;html=1;" edge="1" parent="1" source="acYMGbwTfHjo12XaJq8Q-4" target="acYMGbwTfHjo12XaJq8Q-6">
          <mxGeometry relative="1" as="geometry" />
        </mxCell>
        <mxCell id="acYMGbwTfHjo12XaJq8Q-4" value="ONS" style="whiteSpace=wrap;html=1;" vertex="1" parent="1">
          <mxGeometry x="280" width="120" height="60" as="geometry" />
        </mxCell>
        <mxCell id="acYMGbwTfHjo12XaJq8Q-9" value="" style="edgeStyle=orthogonalEdgeStyle;rounded=0;orthogonalLoop=1;jettySize=auto;html=1;" edge="1" parent="1" source="acYMGbwTfHjo12XaJq8Q-6" target="acYMGbwTfHjo12XaJq8Q-8">
          <mxGeometry relative="1" as="geometry" />
        </mxCell>
        <mxCell id="acYMGbwTfHjo12XaJq8Q-6" value="fvlso001.cpp" style="whiteSpace=wrap;html=1;" vertex="1" parent="1">
          <mxGeometry x="370" y="130" width="120" height="100" as="geometry" />
        </mxCell>
        <mxCell id="acYMGbwTfHjo12XaJq8Q-11" value="" style="edgeStyle=orthogonalEdgeStyle;rounded=0;orthogonalLoop=1;jettySize=auto;html=1;" edge="1" parent="1" source="acYMGbwTfHjo12XaJq8Q-8" target="acYMGbwTfHjo12XaJq8Q-10">
          <mxGeometry relative="1" as="geometry" />
        </mxCell>
        <mxCell id="acYMGbwTfHjo12XaJq8Q-8" value="epollServer run in new thread" style="shape=process;whiteSpace=wrap;html=1;backgroundOutline=1;" vertex="1" parent="1">
          <mxGeometry x="520" y="510" width="120" height="60" as="geometry" />
        </mxCell>
        <mxCell id="acYMGbwTfHjo12XaJq8Q-22" value="" style="edgeStyle=orthogonalEdgeStyle;rounded=0;orthogonalLoop=1;jettySize=auto;html=1;" edge="1" parent="1" source="acYMGbwTfHjo12XaJq8Q-10" target="acYMGbwTfHjo12XaJq8Q-21">
          <mxGeometry relative="1" as="geometry" />
        </mxCell>
        <mxCell id="acYMGbwTfHjo12XaJq8Q-10" value="epollServer run in new thread" style="shape=process;whiteSpace=wrap;html=1;backgroundOutline=1;" vertex="1" parent="1">
          <mxGeometry x="300" y="710" width="120" height="60" as="geometry" />
        </mxCell>
        <mxCell id="acYMGbwTfHjo12XaJq8Q-15" value="" style="edgeStyle=orthogonalEdgeStyle;rounded=0;orthogonalLoop=1;jettySize=auto;html=1;" edge="1" parent="1" source="acYMGbwTfHjo12XaJq8Q-12" target="acYMGbwTfHjo12XaJq8Q-14">
          <mxGeometry relative="1" as="geometry" />
        </mxCell>
        <mxCell id="acYMGbwTfHjo12XaJq8Q-12" value="HTM/Uniser" style="whiteSpace=wrap;html=1;rounded=1;" vertex="1" parent="1">
          <mxGeometry x="160" y="210" width="120" height="60" as="geometry" />
        </mxCell>
        <mxCell id="acYMGbwTfHjo12XaJq8Q-18" value="" style="edgeStyle=orthogonalEdgeStyle;rounded=0;orthogonalLoop=1;jettySize=auto;html=1;" edge="1" parent="1" source="acYMGbwTfHjo12XaJq8Q-14" target="acYMGbwTfHjo12XaJq8Q-17">
          <mxGeometry relative="1" as="geometry" />
        </mxCell>
        <mxCell id="acYMGbwTfHjo12XaJq8Q-20" value="" style="edgeStyle=orthogonalEdgeStyle;rounded=0;orthogonalLoop=1;jettySize=auto;html=1;" edge="1" parent="1" source="acYMGbwTfHjo12XaJq8Q-14" target="acYMGbwTfHjo12XaJq8Q-19">
          <mxGeometry relative="1" as="geometry" />
        </mxCell>
        <mxCell id="acYMGbwTfHjo12XaJq8Q-14" value="Register" style="whiteSpace=wrap;html=1;rounded=1;" vertex="1" parent="1">
          <mxGeometry x="160" y="350" width="120" height="60" as="geometry" />
        </mxCell>
        <mxCell id="acYMGbwTfHjo12XaJq8Q-17" value="process done." style="ellipse;whiteSpace=wrap;html=1;rounded=1;" vertex="1" parent="1">
          <mxGeometry x="-20" y="340" width="80" height="80" as="geometry" />
        </mxCell>
        <mxCell id="acYMGbwTfHjo12XaJq8Q-23" style="edgeStyle=orthogonalEdgeStyle;rounded=0;orthogonalLoop=1;jettySize=auto;html=1;entryX=0.5;entryY=0;entryDx=0;entryDy=0;" edge="1" parent="1" source="acYMGbwTfHjo12XaJq8Q-19" target="acYMGbwTfHjo12XaJq8Q-21">
          <mxGeometry relative="1" as="geometry" />
        </mxCell>
        <mxCell id="acYMGbwTfHjo12XaJq8Q-19" value="epollServer::registrations" style="rhombus;whiteSpace=wrap;html=1;rounded=1;" vertex="1" parent="1">
          <mxGeometry x="180" y="480" width="80" height="80" as="geometry" />
        </mxCell>
        <mxCell id="acYMGbwTfHjo12XaJq8Q-21" value="infinite while loop()" style="rhombus;whiteSpace=wrap;html=1;" vertex="1" parent="1">
          <mxGeometry x="-80" y="700" width="220" height="210" as="geometry" />
        </mxCell>
      </root>
    </mxGraphModel>
  </diagram>
</mxfile>
